<svg width="71" height="93" viewBox="0 0 71 93" fill="none" xmlns="http://www.w3.org/2000/svg">
<path d="M2.54136 24.9661C1.63525 26.3422 1.01207 27.8939 0.710017 29.5264C0.407962 31.1588 0.4334 32.8374 0.784777 34.4594C1.21722 36.1537 1.55015 37.8732 1.78175 39.6086C1.98352 41.683 1.78175 43.4157 1.87671 45.3436C2.00513 49.1313 2.9325 52.845 4.59465 56.2279C5.78154 58.5707 7.79923 60.9623 8.8793 63.3417C9.13229 63.9471 9.32708 64.5764 9.46087 65.2208C10.6905 69.9473 12.8117 74.3793 15.7039 78.2648C17.5198 80.7052 19.3951 81.2665 21.2703 82.1085C22.5043 82.5444 23.553 83.4069 24.2375 84.5489C25.2279 86.3415 26.4899 87.9604 27.9762 89.3443C29.1418 90.6865 30.6578 91.6563 32.3439 92.1386C35.6909 92.8463 37.9816 91.1624 41.2337 90.5401C44.1534 89.9788 45.9219 90.0765 47.9158 89.0393C49.1632 88.3279 50.1788 87.254 50.8355 85.9522C51.9436 83.8934 52.5313 81.5817 52.5447 79.2288C52.5704 76.8637 52.4435 74.4995 52.1648 72.1516C51.9393 69.9552 51.7376 67.771 51.6545 65.6357C51.5706 64.3062 51.6384 62.9711 51.8563 61.6578C52.4423 58.9877 53.8438 56.5804 55.8561 54.788L56.6987 53.9583L57.0192 53.6288C57.5414 53.0309 57.7551 52.5673 58.2061 52.0548C58.9052 51.3039 59.7044 50.6589 60.5799 50.139C62.0397 49.2117 63.5945 48.3942 65.1256 47.5522C67.0127 46.5272 68.983 45.4168 70.0037 43.5621C70.4713 42.5521 70.6127 41.4148 70.4072 40.3163C70.7514 39.4622 69.2203 37.4001 69.3272 36.4605C69.0188 35.5282 68.8507 34.553 68.8287 33.5686C68.8287 32.5558 68.8287 31.5675 68.7456 30.5791C68.5223 27.1823 67.1247 23.9795 64.8051 21.5496C59.4879 16.205 51.88 19.6338 46.7408 16.1318C41.1743 12.337 42.4918 4.64968 36.1776 1.57476C34.6658 0.862523 33.0217 0.496154 31.3588 0.500967C27.297 0.6418 23.3678 2.02229 20.0716 4.46664C12.0483 9.85996 5.81715 19.1213 2.54136 24.9661Z" stroke="#E6333C" stroke-miterlimit="10"/>
</svg>
