<svg width="80" height="108" viewBox="0 0 80 108" fill="none" xmlns="http://www.w3.org/2000/svg">
<path d="M4.4517 26.309C2.29513 28.9525 -0.28801 31.8031 1.01541 37.2119C1.67401 39.2747 2.07224 41.416 2.20034 43.5831C2.20034 46.1657 1.33534 48.0173 0.861365 50.1857C0.0150862 54.7396 0.665343 59.4535 2.70985 63.586C4.13177 66.4122 7.15334 69.3359 8.23163 72.2595C8.47215 73.0136 8.58048 73.8055 8.55156 74.5985C8.78845 80.5838 10.7472 86.3623 14.18 91.2026C16.4787 94.5527 18.9197 94.1506 21.2185 94.5161C22.7115 94.7354 24.3111 95.3079 24.6903 97.1474C25.3081 99.5066 26.3799 101.714 27.8422 103.64C28.956 105.248 30.4964 107.161 32.8189 107.453C36.8951 107.953 38.8976 104.286 42.9501 103.653C46.3982 103.117 47.6898 104.712 49.5738 105.054C50.6639 105.261 51.5289 105.139 53.1286 103.665C54.7282 102.191 55.9961 99.0478 56.3279 95.9536C56.5401 93.0267 56.4806 90.0856 56.1502 87.1704C55.9369 84.4538 55.7236 81.7493 55.6406 79.0937C55.5246 77.4609 55.6404 75.8194 55.9843 74.2209C56.8967 70.7612 59.2902 68.6537 61.8378 66.4853C62.1933 66.1807 62.5725 65.8762 62.9161 65.5229C63.0584 65.3929 63.1892 65.2502 63.3071 65.0965C63.7414 64.4334 64.1181 63.7322 64.4328 63.0012C65.118 61.9621 65.9958 61.0721 67.016 60.3821C68.7777 59.1312 70.6096 57.9882 72.5022 56.9589C74.8128 55.6433 77.3604 54.2789 78.4268 51.8912C78.9194 50.3757 78.813 48.722 78.1306 47.2864C78.4624 46.4702 75.3342 43.2907 75.3816 42.4136C74.7354 41.1891 74.4165 39.8104 74.4573 38.4179C74.4573 36.9926 74.6232 35.6039 74.6469 34.2151C74.7693 29.4294 73.039 24.7894 69.8361 21.3144C64.658 15.9908 57.1574 19.2434 52.0622 15.7594C46.5759 12.0073 47.749 4.45444 41.4926 1.51857C39.8404 0.78942 38.0521 0.444169 36.2552 0.507462C31.8677 0.768466 27.6465 2.32502 24.0978 4.99045C15.5071 11.0206 9.02553 20.7053 4.4517 26.309Z" stroke="#E53B3C" stroke-miterlimit="10"/>
</svg>
