<svg width="367" height="589" viewBox="0 0 367 589" fill="none" xmlns="http://www.w3.org/2000/svg">
<path d="M111.568 64.3023C84.3026 69.4332 49.8059 77.2331 62.834 113.478C67.4692 126.373 73.2779 140.534 68.4057 153.343C62.2058 169.614 42.788 174.452 28.5033 183.812C2.80267 200.679 -7.17885 238.887 6.9162 266.869C14.9299 282.713 44.4832 300.25 46.0362 317.642C46.5459 323.333 42.6339 328.294 39.2079 332.779C13.128 366.903 7.0466 407.024 28.4677 445.866C43.7601 473.628 60.9136 446.402 75.7199 435.202C86.5194 427.012 101.895 425.744 92.9446 443.647C84.8237 460.054 80.5373 478.181 80.4262 496.59C80.4262 509.252 85.168 530.385 102.013 527.594C125.817 523.694 120.222 464.939 145.875 464.488C163.74 464.171 152.134 508.363 151.138 544.084C150.498 566.874 154.15 586.216 172.548 588.312C192.392 590.567 209.439 572.115 215.9 554.407C222.218 537.064 221.946 518.015 221.578 499.502C221.246 482.546 220.918 465.601 220.594 448.669C220.405 438.285 220.333 427.353 225.17 418.2C235.839 398.042 262.536 395.312 281.064 386.878C283.889 385.703 286.518 384.078 288.853 382.064C289.752 381.252 290.548 380.326 291.223 379.31C295.42 372.839 289.754 368.939 290.24 362.784C290.915 354.168 294.555 347.184 300.269 340.92C309.46 330.853 319.912 322.086 331.351 314.851C345.446 305.942 362.73 297.045 365.611 280.312C368.254 264.809 356.957 250.709 346.383 239.362C346.383 239.301 298.514 205.969 298.514 205.908C288.568 198.498 285.118 184.641 285.925 172.015C286.731 159.388 291.046 147.335 293.701 134.989C302.473 94.0152 291.781 48.9096 265.144 17.0883C262.05 13.5266 258.588 10.3227 254.818 7.53335C251.262 4.75462 247.706 2.24401 243.367 1.17152C237.902 -0.169094 232.152 0.696211 226.699 2.03683C213.497 5.33041 201.199 11.6788 190.744 20.5982C164.084 43.4009 146.207 57.782 111.568 64.3023Z" stroke="#D3D017" stroke-miterlimit="10"/>
</svg>
