<svg width="18" height="18" viewBox="0 0 18 18" fill="none" xmlns="http://www.w3.org/2000/svg">
<g clip-path="url(#clip0_0_25)">
<path d="M16.1171 9.1364C16.1171 8.53896 16.0687 8.10299 15.9638 7.65088H9.1416V10.3474H13.146C13.0653 11.0175 12.6294 12.0267 11.6605 12.7049L11.6469 12.7952L13.804 14.4662L13.9534 14.4811C15.3259 13.2135 16.1171 11.3485 16.1171 9.1364Z" fill="#4285F4"/>
<path d="M9.14154 16.2412C11.1034 16.2412 12.7504 15.5953 13.9534 14.4812L11.6605 12.705C11.0469 13.1329 10.2234 13.4316 9.14154 13.4316C7.22005 13.4316 5.58921 12.1641 5.00785 10.4121L4.92264 10.4193L2.67972 12.1552L2.65039 12.2367C3.84526 14.6103 6.29963 16.2412 9.14154 16.2412Z" fill="#34A853"/>
<path d="M5.00848 10.4122C4.85509 9.96005 4.76631 9.4756 4.76631 8.97507C4.76631 8.47448 4.85509 7.99008 5.00041 7.53797L4.99635 7.44168L2.72532 5.67798L2.65102 5.71332C2.15855 6.69831 1.87598 7.80441 1.87598 8.97507C1.87598 10.1457 2.15855 11.2518 2.65102 12.2368L5.00848 10.4122Z" fill="#FBBC05"/>
<path d="M9.14154 4.51832C10.506 4.51832 11.4263 5.10768 11.9511 5.6002L14.0018 3.59795C12.7424 2.42729 11.1034 1.70874 9.14154 1.70874C6.29963 1.70874 3.84526 3.33958 2.65039 5.71319L4.99978 7.53784C5.58921 5.78588 7.22005 4.51832 9.14154 4.51832Z" fill="#EB4335"/>
</g>
<g clip-path="url(#clip1_0_25)">
<path d="M16.1171 9.1364C16.1171 8.53896 16.0687 8.10299 15.9638 7.65088H9.1416V10.3474H13.146C13.0653 11.0175 12.6294 12.0267 11.6605 12.7049L11.6469 12.7952L13.804 14.4662L13.9534 14.4811C15.3259 13.2135 16.1171 11.3485 16.1171 9.1364Z" fill="#9381FF"/>
<path d="M9.14154 16.2412C11.1034 16.2412 12.7504 15.5953 13.9534 14.4812L11.6605 12.705C11.0469 13.1329 10.2234 13.4316 9.14154 13.4316C7.22005 13.4316 5.58921 12.1641 5.00785 10.4121L4.92264 10.4193L2.67972 12.1552L2.65039 12.2367C3.84526 14.6103 6.29963 16.2412 9.14154 16.2412Z" fill="#9381FF"/>
<path d="M5.00848 10.4122C4.85509 9.96005 4.76631 9.4756 4.76631 8.97507C4.76631 8.47448 4.85509 7.99008 5.00041 7.53797L4.99635 7.44168L2.72532 5.67798L2.65102 5.71332C2.15855 6.69831 1.87598 7.80441 1.87598 8.97507C1.87598 10.1457 2.15855 11.2518 2.65102 12.2368L5.00848 10.4122Z" fill="#9381FF"/>
<path d="M9.14154 4.51832C10.506 4.51832 11.4263 5.10768 11.9511 5.6002L14.0018 3.59795C12.7424 2.42729 11.1034 1.70874 9.14154 1.70874C6.29963 1.70874 3.84526 3.33958 2.65039 5.71319L4.99978 7.53784C5.58921 5.78588 7.22005 4.51832 9.14154 4.51832Z" fill="#9381FF"/>
</g>
<defs>
<clipPath id="clip0_0_25">
<rect width="14.25" height="14.5825" fill="white" transform="translate(1.875 1.70874)"/>
</clipPath>
<clipPath id="clip1_0_25">
<rect width="14.25" height="14.5825" fill="white" transform="translate(1.875 1.70874)"/>
</clipPath>
</defs>
</svg>
