<svg width="346" height="553" viewBox="0 0 346 553" fill="none" xmlns="http://www.w3.org/2000/svg">
<path d="M103.589 61.4528C78.2219 66.4494 46.0506 73.8223 58.2127 107.762C62.5393 119.864 67.9684 133.147 63.4639 145.151C57.7148 160.409 39.6733 165.028 26.4207 173.875C2.54701 189.718 -6.66343 225.522 6.56546 251.76C14.0808 266.689 41.6765 283.104 43.2175 299.41C43.7154 304.748 40.1 309.391 36.9232 313.596C12.7413 345.586 7.28855 383.182 27.4401 419.547C41.7714 445.492 57.8452 420.241 71.726 409.907C81.8255 402.339 96.1568 401.181 87.9302 417.914C80.4336 433.28 76.5404 450.237 76.5624 467.428C76.5624 479.262 81.1024 498.98 96.9273 496.408C119.26 492.85 114.234 438.168 138.285 437.693C155.082 437.364 144.426 478.433 143.643 511.495C143.134 532.627 146.583 550.493 163.795 552.345C182.299 554.319 198.171 537.002 204.169 520.379C210.096 504.122 209.764 486.257 209.42 468.891C209.104 452.999 208.788 437.116 208.472 421.241C208.282 411.491 208.223 401.242 212.728 392.699C222.72 373.774 247.566 371.092 264.884 363.11C267.532 362.01 269.993 360.484 272.175 358.589C273.004 357.826 273.74 356.963 274.367 356.018C278.291 349.924 273.052 346.268 273.526 340.553C274.213 332.497 277.639 325.929 283.009 320.116C291.648 310.703 301.462 302.507 312.193 295.742C325.41 287.394 341.603 279.046 344.353 263.374C346.854 248.909 336.351 235.735 326.572 225.132C326.572 225.011 282.049 193.922 282.049 193.788C272.791 186.854 269.579 173.912 270.325 162.103C271.072 150.294 275.067 139.046 277.532 127.505C285.664 89.2263 275.79 46.9751 250.743 17.3979C247.519 13.5835 243.63 11.0487 239.873 8.13605C236.115 5.22343 233.021 2.35955 228.481 1.18963C223.301 -0.150907 217.813 0.6656 212.656 1.92083C200.061 4.97815 188.319 10.9744 178.34 19.4453C153.032 40.9914 135.974 55.067 103.589 61.4528Z" stroke="#D5C821" stroke-miterlimit="10"/>
</svg>
