<svg width="154" height="230" viewBox="0 0 154 230" fill="none" xmlns="http://www.w3.org/2000/svg">
<path d="M31.8272 36.0437C23.2002 39.7768 12.2355 43.4733 16.6261 56.8931C18.2163 61.773 20.1861 67.0677 18.9994 71.972C17.3856 78.0719 11.7134 80.768 7.655 84.7817C0.404524 91.9552 -1.92131 105.692 3.41864 116.306C6.55141 122.528 16.4719 129.238 17.6585 135.911C18.0264 137.997 16.994 139.876 16.1159 141.584C9.49432 154.528 9.20952 169.155 17.5042 183.246C23.2002 192.921 29.4895 185.613 34.9956 182.929C38.9471 181.014 43.9667 180.94 42.0443 187.077C40.2897 193.1 39.9763 199.47 41.1306 205.645C41.89 210.098 44.299 216.978 50.4221 216.515C59.6068 215.819 59.6543 197.935 69.3137 197.312C76.5167 196.861 74.5468 209.573 75.5911 219.016C76.2793 225.116 77.8457 229.996 83.8027 229.459C90.2226 228.885 95.4913 221.822 97.4256 214.941C99.2768 208.329 99.0394 201.168 98.7784 194.202C98.5292 187.784 98.28 181.38 98.1376 175.011C98.0426 171.071 98.0189 166.972 99.5853 163.47C103.038 155.675 111.713 153.393 118.429 149.599C119.445 149.064 120.393 148.405 121.254 147.635C121.584 147.326 121.882 146.982 122.144 146.61C123.734 144.341 122.25 142.889 122.713 140.754C123.433 137.803 125.01 135.148 127.234 133.142C130.939 129.597 135.01 126.48 139.374 123.845C144.749 120.551 151.169 117.221 152.653 111.109C153.899 105.924 150.54 101.068 147.443 97.0791C147.692 96.4569 132.954 85.4405 132.978 84.7573C129.916 82.049 128.825 77.3399 129.026 73.009C129.228 68.678 130.486 64.4691 131.186 60.2724C133.559 46.2061 129.845 30.5782 120.209 20.1107C115.641 15.1454 109.079 16.829 104.356 13.5107C99.3479 9.99713 99.3836 3.56785 93.5333 1.31089C90.8791 0.446727 88.0581 0.270709 85.3217 0.798505C78.6298 1.85205 72.313 4.65386 66.976 8.93575C53.6261 19.2324 44.1328 30.7123 31.8272 36.0437Z" stroke="#E26F3E" stroke-miterlimit="10"/>
</svg>
