<svg width="175" height="266" viewBox="0 0 175 266" fill="none" xmlns="http://www.w3.org/2000/svg">
<path d="M39.869 38.95C29.3653 42.8668 16.0486 46.9301 21.3064 62.634C23.1936 68.3079 25.6029 74.5064 23.9532 80.1925C21.8762 87.355 14.8262 90.2347 9.71079 94.8348C0.619404 102.986 -2.47831 119.165 3.77646 131.526C7.3964 138.725 19.3125 146.51 20.535 154.258C20.9148 156.699 19.5974 158.883 18.4698 160.872C9.8888 175.941 8.97492 193.133 18.636 209.679C25.2943 221.173 32.6885 211.863 39.1213 208.325C43.7619 205.775 49.8031 205.579 47.1801 212.901C44.7941 219.947 44.082 227.477 45.1031 234.864C45.7915 240.147 48.4382 248.445 55.6306 247.761C66.3124 246.736 65.7664 224.761 76.9941 224.163C85.3022 223.711 82.3232 239.586 83.1777 251.654C83.7237 259.439 85.5514 265.759 92.6726 265.491C100.435 265.198 106.915 256.949 109.289 249.018C111.579 241.343 111.354 232.985 111.069 224.834C110.808 217.366 110.582 209.915 110.393 202.48C110.286 197.892 110.262 193.109 112.161 189.058C116.339 180.016 126.819 177.686 134.711 173.427C135.911 172.834 137.028 172.079 138.035 171.182C138.424 170.815 138.774 170.406 139.079 169.962C140.919 167.265 139.079 165.569 139.494 163.031C140.205 159.54 141.98 156.373 144.562 153.99C148.819 149.789 153.53 146.105 158.603 143.008C164.846 139.152 172.371 135.272 174.032 128.097C175.433 121.862 171.267 116.091 167.409 111.356C167.647 110.795 149.607 97.5436 149.607 96.9213C145.856 93.7488 144.527 88.1115 144.788 82.9501C145.049 77.7887 146.616 72.8348 147.506 67.7832C150.497 51.0055 146.2 32.3976 134.759 19.8174C130.356 14.9367 124.077 16.1569 119.46 12.9233C114.594 9.4824 114.285 3.41806 108.577 1.28272C105.635 0.389323 102.523 0.259347 99.5208 0.904448C92.1731 2.18904 85.2562 5.34815 79.4035 10.0925C64.7338 21.7209 54.3962 33.5446 39.869 38.95Z" stroke="#E17B3D" stroke-miterlimit="10"/>
</svg>
