<svg width="26" height="26" viewBox="0 0 26 26" fill="none" xmlns="http://www.w3.org/2000/svg">
<path d="M13.0001 9.61543C11.1364 9.61543 9.61555 11.1363 9.61555 13C9.61555 14.8637 11.1364 16.3846 13.0001 16.3846C14.8638 16.3846 16.3847 14.8637 16.3847 13C16.3847 11.1363 14.8638 9.61543 13.0001 9.61543ZM23.1513 13C23.1513 11.5984 23.164 10.2096 23.0853 8.81055C23.0066 7.18555 22.6359 5.74336 21.4476 4.55508C20.2568 3.36426 18.8171 2.99609 17.1921 2.91738C15.7906 2.83867 14.4017 2.85137 13.0027 2.85137C11.6011 2.85137 10.2122 2.83867 8.81321 2.91738C7.18821 2.99609 5.74602 3.3668 4.55774 4.55508C3.36692 5.7459 2.99875 7.18555 2.92004 8.81055C2.84133 10.2121 2.85403 11.601 2.85403 13C2.85403 14.399 2.84133 15.7904 2.92004 17.1895C2.99875 18.8145 3.36946 20.2566 4.55774 21.4449C5.74856 22.6357 7.18821 23.0039 8.81321 23.0826C10.2148 23.1613 11.6036 23.1486 13.0027 23.1486C14.4042 23.1486 15.7931 23.1613 17.1921 23.0826C18.8171 23.0039 20.2593 22.6332 21.4476 21.4449C22.6384 20.2541 23.0066 18.8145 23.0853 17.1895C23.1665 15.7904 23.1513 14.4016 23.1513 13ZM13.0001 18.2076C10.1183 18.2076 7.7925 15.8818 7.7925 13C7.7925 10.1182 10.1183 7.79238 13.0001 7.79238C15.882 7.79238 18.2077 10.1182 18.2077 13C18.2077 15.8818 15.882 18.2076 13.0001 18.2076ZM18.421 8.79531C17.7482 8.79531 17.2048 8.25195 17.2048 7.5791C17.2048 6.90625 17.7482 6.36289 18.421 6.36289C19.0939 6.36289 19.6372 6.90625 19.6372 7.5791C19.6374 7.73887 19.6061 7.89711 19.5451 8.04476C19.484 8.19241 19.3944 8.32656 19.2815 8.43954C19.1685 8.55251 19.0343 8.64209 18.8867 8.70314C18.739 8.76419 18.5808 8.79551 18.421 8.79531Z" fill="#98A2B3"/>
</svg>
