<svg width="228" height="356" viewBox="0 0 228 356" fill="none" xmlns="http://www.w3.org/2000/svg">
<path d="M59.776 45.9703C44.5928 50.2751 25.3765 55.336 32.8258 76.7382C35.4828 84.421 38.8279 92.8355 36.2776 100.494C33.063 110.25 22.5771 113.616 14.9262 119.494C1.21386 130.079 -3.80371 152.42 4.61822 169.066C9.45787 178.676 26.278 189.164 27.5828 199.554C28.0099 202.907 25.9696 205.858 24.2022 208.529C10.7034 228.87 8.41402 252.431 21.3435 275.211C30.3704 291.235 40.5004 276.931 49.2545 271.272C55.6124 267.162 64.236 266.638 59.859 276.918C55.8607 286.571 54.153 297.063 54.877 307.528C55.3515 314.845 58.5898 326.723 68.4826 325.454C82.7762 323.613 80.8664 291.443 96.1208 290.882C107.057 290.467 101.708 314.211 102.052 332.845C102.277 344.808 104.578 354.795 114.886 355.125C126.001 355.564 135.419 344.491 138.918 333.82C142.347 323.454 142.086 312.125 141.789 301.101C141.504 291.004 141.251 280.914 141.03 270.833C140.899 264.626 140.864 258.138 143.568 252.675C149.57 240.541 164.552 238.126 175.382 232.687C177.037 231.935 178.576 230.937 179.949 229.724C180.473 229.24 180.943 228.695 181.348 228.102C183.851 224.358 180.898 222.005 181.348 218.505C182.073 213.682 184.339 209.245 187.789 205.895C193.424 200.07 199.73 194.976 206.567 190.724C215.001 185.468 225.237 180.188 227.195 170.359C228.95 161.554 222.794 153.469 217.076 146.896C217.242 146.481 190.897 127.652 190.921 127.189C185.441 122.823 183.519 114.908 183.934 107.677C184.349 100.445 186.674 93.5185 188.062 86.4332C192.653 62.9457 186.757 36.7753 170.922 19.0438C166.889 14.5317 161.432 14.5805 157.008 11.4098C152.583 8.23911 151.326 3.04406 145.976 1.2514C142.418 0.0319017 138.48 0.49531 134.802 1.2514C125.828 3.10468 117.419 7.14921 110.284 13.0439C92.3368 27.7632 79.8344 40.2997 59.776 45.9703Z" stroke="#DE9739" stroke-miterlimit="10"/>
</svg>
