<svg width="111" height="159" viewBox="0 0 111 159" fill="none" xmlns="http://www.w3.org/2000/svg">
<path d="M16.0626 30.5796C11.1796 33.8286 4.91837 36.9066 7.57967 45.7621C8.5539 49.0234 9.80139 52.5655 9.23111 55.8879C8.53014 60.0041 5.66687 62.215 3.59961 65.1709C0.0353599 70.3864 -0.760655 79.2541 2.83924 86.3995C5.00155 90.699 11.0014 95.2428 12.1182 99.8354C12.3268 101.114 12.1614 102.428 11.6429 103.61C8.92221 112.306 9.78951 121.858 15.4685 130.994C19.2348 137.102 23.3218 133.73 27.0048 132.753C29.5711 132.082 32.5651 132.314 32.0185 136.039C31.5803 140 32.0649 144.01 33.4324 147.74C34.371 150.562 36.3194 154.422 40.2638 154.581C46.5369 154.825 47.7131 144.809 54.1763 144.174C59.2494 143.673 59.2138 150.061 60.6632 154.275C61.6256 157.036 62.7543 159.027 66.2353 157.939C69.954 156.804 72.8886 152.015 73.9103 147.289C74.8727 142.83 74.647 138.042 74.3975 133.352C74.1598 129.052 73.9341 124.741 73.8272 120.49C73.5964 117.87 73.8751 115.23 74.647 112.722C76.6548 107.396 81.7755 105.198 86.0763 102.339C86.7298 101.933 87.3461 101.467 87.9178 100.947C88.1321 100.731 88.3344 100.502 88.5238 100.263C89.5812 98.8338 88.9515 97.8201 89.4029 96.5375C90.1168 94.6683 91.2969 93.0252 92.8246 91.7739C95.4189 89.5403 98.2022 87.5496 101.141 85.8254C104.777 83.6635 109.006 81.4527 110.23 77.4586C111.181 74.3195 109.422 71.3514 107.854 68.7985C108.151 68.0657 100.036 61.4699 100.084 60.7126C98.4332 58.6654 97.6311 56.0334 97.8502 53.3839C97.9334 50.7089 98.5749 48.1317 98.8957 45.5178C99.9412 36.8211 97.4463 27.2939 91.4227 20.8935C86.5753 15.6047 79.4468 18.2552 74.445 14.8351C69.1461 11.1708 69.859 4.06201 63.7522 1.39927C61.6709 0.602753 59.4343 0.330515 57.2297 0.605335C51.8365 1.22153 46.7074 3.33244 42.3905 6.71255C31.7215 14.5909 24.0465 25.2785 16.0626 30.5796Z" stroke="#E4533D" stroke-miterlimit="10"/>
</svg>
