<svg width="133" height="194" viewBox="0 0 133 194" fill="none" xmlns="http://www.w3.org/2000/svg">
<path d="M23.9419 33.3606C17.197 36.8704 8.59108 40.234 12.088 51.3483C13.3682 55.4065 15.0041 59.879 14.0794 63.925C12.8941 69.0435 8.62664 71.4686 5.59204 74.8931C0.198517 81.084 -1.35435 92.3689 3.10272 101.229C5.74614 106.481 13.712 112.099 14.8618 117.693C15.0238 119.335 14.6708 120.988 13.8542 122.409C9.18378 133.219 9.48013 145.296 16.4502 156.886C21.1918 164.746 26.3601 159.433 30.9357 157.605C34.1955 156.313 38.1903 156.386 36.9693 161.322C35.8635 166.301 35.9449 171.481 37.2064 176.421C38.0599 180.077 40.2291 185.512 45.2552 185.269C52.984 184.903 53.5529 171.12 61.6373 170.486C67.7658 170.011 66.7582 179.553 68.0147 186.329C68.8326 190.765 70.184 194.177 74.89 193.385C79.9516 192.532 84.053 186.609 85.5585 180.82C86.9572 175.288 86.7439 169.328 86.4712 163.503C86.2342 158.141 85.9971 152.803 85.8667 147.502C85.7837 144.199 85.7719 140.799 87.0521 137.85C89.7785 131.306 96.6538 129.063 102.166 125.748C103.014 125.28 103.809 124.716 104.537 124.067C104.816 123.812 105.066 123.526 105.283 123.214C106.611 121.373 105.556 120.167 106.018 118.436C106.731 116.027 108.106 113.882 109.978 112.258C113.127 109.368 116.555 106.816 120.207 104.641C124.7 101.923 130.022 99.1569 131.374 94.1116C132.476 89.9559 129.916 86.0318 127.569 82.7779C127.841 82.1076 116.426 73.3454 116.473 72.602C114.103 70.3596 113.237 66.5695 113.38 63.0719C113.522 59.5743 114.47 56.1986 114.98 52.7741C116.675 41.4161 113.593 28.8515 105.769 20.4305C101.028 15.3486 94.2118 17.5057 89.3754 14.1299C84.2427 10.5592 84.6339 3.78335 78.6358 1.346C76.2734 0.520984 73.752 0.295221 71.2864 0.687924C65.2455 1.51596 59.5225 3.96191 54.6909 7.78061C42.6355 16.9938 34.077 28.0838 23.9419 33.3606Z" stroke="#E3623E" stroke-miterlimit="10"/>
</svg>
