<svg width="1024" height="1588" viewBox="0 0 1024 1588" fill="none" xmlns="http://www.w3.org/2000/svg">
<rect width="1024" height="1588" fill="url(#paint0_linear_12_8918)"/>
<g clip-path="url(#clip0_12_8918)">
<path d="M69.8351 981.085C32.1885 993.881 13.4017 1036.32 13.4017 1109.08C13.4017 1179.75 32.225 1280.74 69.8716 1362.65" stroke="#E73A1E" stroke-width="0.864115" stroke-miterlimit="10"/>
<path d="M114.122 1013.86C61.331 1019.84 34.9297 1058.02 34.9297 1136.17C34.9297 1210.52 61.331 1324.86 114.122 1395.42" stroke="#E73A1E" stroke-width="0.864115" stroke-miterlimit="10"/>
<path d="M158.384 1033.66C96.4313 1043.14 65.449 1085.47 65.449 1168.18C65.449 1246.1 96.4313 1364.36 158.384 1415.22" stroke="#E73A1E" stroke-width="0.864115" stroke-miterlimit="10"/>
<path d="M202.695 1041.93C136.905 1059.24 104.009 1112.36 104.009 1198.66C104.009 1280.12 136.905 1394.78 202.695 1423.51" stroke="#E73A1E" stroke-width="0.864115" stroke-miterlimit="10"/>
<path d="M246.981 1040.11C181.995 1065.3 149.514 1132.65 149.514 1221.7C149.514 1306.62 182.02 1413.24 246.981 1421.7" stroke="#E73A1E" stroke-width="0.864115" stroke-miterlimit="10"/>
<path d="M291.268 1029.65C231.07 1059.99 201.026 1141.67 201.026 1232.79C201.026 1320.89 231.131 1418.44 291.329 1411.21" stroke="#E73A1E" stroke-width="0.864115" stroke-miterlimit="10"/>
<path d="M335.554 1011.99C283.47 1043.34 257.422 1136.62 257.422 1229.24C257.422 1320.09 283.47 1410.31 335.554 1393.52" stroke="#E73A1E" stroke-width="0.864115" stroke-miterlimit="10"/>
<path d="M379.841 988.576C338.515 1016.44 317.852 1116.8 317.852 1210.61C317.852 1303.6 338.564 1390.06 379.841 1370.09" stroke="#E73A1E" stroke-width="0.864115" stroke-miterlimit="10"/>
<path d="M424.127 960.911C366.987 1000.1 366.987 1375.4 424.127 1342.47" stroke="#E73A1E" stroke-width="0.864115" stroke-miterlimit="10"/>
<path d="M468.414 930.277C439.418 950.973 439.418 1331.95 468.414 1311.84" stroke="#E73A1E" stroke-width="0.864115" stroke-miterlimit="10"/>
<path d="M512.701 898.276C513.164 897.294 513.164 1280.12 512.701 1279.82" stroke="#E73A1E" stroke-width="0.864115" stroke-miterlimit="10"/>
<path d="M556.987 866.288C586.885 845.629 586.885 1226.54 556.987 1247.85" stroke="#E73A1E" stroke-width="0.864115" stroke-miterlimit="10"/>
<path d="M601.274 835.778C659.266 802.597 659.266 1177.66 601.274 1217.33" stroke="#E73A1E" stroke-width="0.864115" stroke-miterlimit="10"/>
<path d="M645.56 808.112C687.252 788.236 708.097 874.723 708.097 967.644C708.097 1061.47 687.252 1161.7 645.56 1189.72" stroke="#E73A1E" stroke-width="0.864115" stroke-miterlimit="10"/>
<path d="M689.847 784.919C742.235 768.323 768.429 858.735 768.429 949.494C768.429 1042.12 742.235 1135.09 689.847 1166.47" stroke="#E73A1E" stroke-width="0.864115" stroke-miterlimit="10"/>
<path d="M734.121 767.465C794.538 760.645 824.741 858.449 824.741 946.463C824.741 1037.52 794.538 1118.78 734.121 1149.03" stroke="#E73A1E" stroke-width="0.864115" stroke-miterlimit="10"/>
<path d="M778.408 757.254C843.491 766.248 875.984 873.157 875.984 957.979C875.984 1046.95 843.443 1113.83 778.359 1138.82" stroke="#E73A1E" stroke-width="0.864115" stroke-miterlimit="10"/>
<path d="M822.694 755.739C888.484 785.131 921.379 899.978 921.379 981.346C921.379 1067.55 888.484 1120.24 822.694 1137.29" stroke="#E73A1E" stroke-width="0.864115" stroke-miterlimit="10"/>
<path d="M866.981 764.347C928.738 815.877 959.574 934.153 959.574 1011.96C959.574 1094.53 928.702 1136.63 866.981 1145.9" stroke="#E73A1E" stroke-width="0.864115" stroke-miterlimit="10"/>
<path d="M911.316 784.509C963.705 855.592 989.935 969.607 989.935 1043.89C989.935 1121.88 963.729 1160.06 911.316 1166.06" stroke="#E73A1E" stroke-width="0.864115" stroke-miterlimit="10"/>
<path d="M955.554 817.728C992.628 899.779 1011.22 1000.19 1011.22 1070.75C1011.22 1143.33 992.689 1186.03 955.615 1199.29" stroke="#E73A1E" stroke-width="0.864115" stroke-miterlimit="10"/>
<path d="M0 922.463C65.5709 1013.09 145.981 1062.49 233.811 1050.35C321.641 1041.66 416.891 971.296 512.128 902.711C607.365 834.125 702.578 767.304 790.372 765.105C878.092 759.49 958.502 818.634 1024 922.102" stroke="#E73A1E" stroke-width="0.405365" stroke-miterlimit="10"/>
<path d="M0 940.277C26.1333 972.762 58.4802 1006.87 95.4567 1029.79C132.458 1053.06 174.1 1065.1 218.838 1061.89C263.587 1059.05 311.431 1040.96 360.823 1012.46C410.226 984.34 461.165 945.805 512.104 910.599C563.054 875.617 613.993 838.548 663.372 812.932C712.727 786.994 760.596 772.621 805.321 774.683C850.046 776.385 891.664 794.559 928.629 825.044C965.593 855.207 997.903 897.779 1024 939.855" stroke="#E73A1E" stroke-width="0.864115" stroke-miterlimit="10"/>
<path d="M0 958.091C20.2244 977.483 48.8797 1011.88 83.8338 1036.35C118.8 1061.53 160.077 1076.74 205.558 1075.2C296.519 1075.31 404.305 1001.52 512.091 923.332C619.878 844.821 727.664 776.857 818.588 788.398C864.057 792.857 905.31 815.342 940.239 849.269C975.181 882.375 1003.8 926.86 1024 957.731" stroke="#E73A1E" stroke-width="0.864115" stroke-miterlimit="10"/>
<path d="M0 975.905C15.0708 985.073 40.4975 1018.85 73.685 1044.59C106.873 1071.29 147.821 1089.93 193.947 1090.55C286.2 1095.8 399.139 1020.4 512.079 938.997C625.007 857.194 737.959 788 830.175 805.33C876.289 812.373 917.213 838.734 950.388 874.648C983.551 909.605 1008.95 954.153 1024 975.483" stroke="#E73A1E" stroke-width="0.864115" stroke-miterlimit="10"/>
<path d="M0 993.719C10.6604 1000.56 33.3337 1030.2 65.0105 1055.43C96.6872 1081.26 137.355 1102.64 184.03 1106.93C230.704 1111.75 283.373 1099.35 339.051 1071.26C394.717 1043.77 453.392 1000.58 512.055 957.619C570.718 914.661 629.405 872.797 685.059 848.3C740.749 823.181 793.418 815.293 840.08 826.113C886.742 836.349 927.398 865.294 959.05 900.127C990.727 934.364 1013.35 974.501 1024 993.297" stroke="#E73A1E" stroke-width="0.864115" stroke-miterlimit="10"/>
<path d="M0 1011.55C7.00544 1014.73 27.3882 1041.96 57.7979 1067.73C88.2563 1093.9 128.656 1118.67 175.782 1125.59C222.919 1133.2 276.733 1123.1 333.897 1094.53C391.086 1066.98 451.552 1021.01 512.055 978.302C572.557 935.593 633.06 891.344 690.212 866.561C747.364 840.908 801.178 834.933 848.304 848.039C895.417 860.461 935.853 892.027 966.251 926.363C988.912 952.034 1008.31 980.511 1024 1011.12" stroke="#E73A1E" stroke-width="0.864115" stroke-miterlimit="10"/>
<path d="M0 1029.36C8.18722 1030.6 74.2454 1129.52 169.227 1145.87C216.742 1155.81 271.445 1147.52 329.792 1119.3C388.126 1092.13 450.09 1045 512.043 1001.47C573.995 958.141 635.972 912.326 694.294 887.617C752.628 861.791 807.355 857.02 854.834 871.766C949.864 897.009 1015.84 1009.57 1024 1029" stroke="#9381FF" stroke-width="0.864115" stroke-miterlimit="10"/>
<path d="M0 1047.17C3.86213 1043.75 68.8238 1147.06 164.354 1167.59C212.112 1179.5 267.51 1172.88 326.734 1145.01C385.957 1118.31 448.994 1070.37 512.03 1026.24C575.067 982.328 638.104 935.42 697.327 910.537C756.538 884.45 811.936 880.499 859.695 896.052C955.176 923.171 1020.16 1036.69 1024 1046.75" stroke="#9381FF" stroke-width="0.864115" stroke-miterlimit="10"/>
<path d="M0 1064.99C1.0234 1059.65 65.2907 1166.6 161.162 1190.53C209.103 1204.06 264.94 1198.77 324.736 1171.3C384.532 1145.05 448.275 1096.64 512.018 1052.13C575.762 1007.86 639.505 960.203 699.301 935.059C759.085 908.761 814.933 905.071 862.863 920.86C958.734 948.687 1022.99 1061.77 1024 1064.57" stroke="#9381FF" stroke-width="0.864115" stroke-miterlimit="10"/>
<path d="M1.2248e-05 1082.8C-0.316755 1078.18 63.6094 1188.08 159.602 1214.48C207.629 1229.18 263.673 1224.83 323.737 1197.76C383.801 1171.95 447.873 1123.42 511.957 1078.73C576.03 1034.28 640.114 986.092 700.178 960.712C760.242 934.065 816.286 930.227 864.3 945.718C960.342 973.048 1024.27 1084.73 1023.9 1082.37" stroke="#9381FF" stroke-width="0.864115" stroke-miterlimit="10"/>
<path d="M6.0122e-06 1100.62C-0.146194 1099.24 63.8043 1211.28 159.821 1239C207.836 1254.41 263.855 1250.57 323.883 1223.87C383.922 1198.42 447.958 1150.12 511.994 1105.45C576.03 1061.02 640.065 1012.69 700.093 986.911C760.12 959.892 816.152 955.445 864.154 970.141C960.183 995.868 1024.15 1105.2 1024 1100.21" stroke="#9381FF" stroke-width="0.864115" stroke-miterlimit="10"/>
<path d="M0 1118.44C1.49855 1122.64 65.8755 1235.91 161.686 1263.87C209.591 1279.44 265.354 1275.66 325.04 1249.29C384.739 1224.13 448.36 1176.38 511.982 1131.93C575.603 1087.72 639.225 1039.57 698.911 1013.36C758.61 985.93 814.373 980.439 862.278 993.868C958.1 1016.94 1022.48 1123.18 1024 1118.02" stroke="#9381FF" stroke-width="0.864115" stroke-miterlimit="10"/>
<path d="M0 1136.26C4.65405 1148.22 69.8107 1261.61 165.219 1288.65C212.929 1303.83 268.192 1299.64 327.257 1273.54C386.31 1248.57 449.091 1201.7 511.982 1157.69C574.811 1113.88 637.641 1066.25 696.694 1039.57C755.747 1011.74 811.023 1004.85 858.733 1016.59C954.165 1036.06 1019.33 1138.47 1024.01 1135.85" stroke="#9381FF" stroke-width="0.864115" stroke-miterlimit="10"/>
<path d="M0 1154.07C9.29591 1175.82 75.61 1287.92 170.445 1312.86C217.851 1327.08 272.396 1322.04 330.498 1296.15C388.613 1271.3 450.285 1225.59 511.945 1182.22C573.617 1139.04 635.29 1092.29 693.404 1065.12C751.519 1036.94 806.064 1028.34 853.482 1038.04C948.329 1053.14 1014.67 1150.99 1024.05 1153.65" stroke="#9381FF" stroke-width="0.864115" stroke-miterlimit="10"/>
<path d="M0 1171.88C7.72426 1187.23 28.5456 1224.47 59.199 1258.46C89.8402 1292.83 130.325 1323.94 177.378 1336C224.405 1348.71 277.976 1342.39 334.836 1316.65C391.695 1291.8 451.796 1247.56 511.957 1205.07C572.119 1162.57 632.232 1117.21 689.091 1089.63C745.951 1061.16 799.546 1050.64 846.586 1057.75C893.626 1064.21 934.111 1088.29 964.764 1114.26C995.381 1139.8 1016.25 1167.29 1024 1171.46" stroke="#E73A1E" stroke-width="0.864115" stroke-miterlimit="10"/>
<path d="M0 1189.7C11.5377 1210.13 34.747 1250.57 66.7161 1284.68C98.6731 1319.38 139.39 1347.78 185.93 1357.58C232.483 1367.95 284.872 1359.73 340.172 1334.62C395.484 1310.1 453.696 1268.68 511.957 1226.13C570.218 1183.59 628.406 1140.48 683.743 1112.85C739.055 1084.65 791.444 1071.86 838.009 1076.08C884.574 1079.81 925.303 1100.53 957.284 1126.13C989.265 1151.14 1012.5 1180.95 1024.06 1189.28" stroke="#E73A1E" stroke-width="0.864115" stroke-miterlimit="10"/>
<path d="M0 1207.51C16.1064 1230.94 42.1666 1275.49 75.6953 1310.1C109.236 1345.62 150.233 1371.19 196.201 1377.5C288.161 1393.9 400.029 1324.96 511.909 1244.2C623.789 1163.04 735.681 1087.93 827.665 1091.82C873.657 1092.21 914.666 1110.13 948.219 1136.54C981.772 1161.98 1007.92 1195.87 1024 1207.14" stroke="#E73A1E" stroke-width="0.405365" stroke-miterlimit="10"/>
<path d="M0 1225.33C21.4184 1258.32 50.8047 1302.72 86.1608 1335.32C121.493 1368.63 162.843 1390.16 208.165 1393.83C298.785 1404.14 405.341 1336.47 511.896 1259.08C618.464 1181.36 725.032 1108.02 815.689 1106.83C861.011 1105 902.361 1119.47 937.754 1144.36C973.086 1168.52 1002.55 1203.1 1024 1224.92" stroke="#E73A1E" stroke-width="0.405365" stroke-miterlimit="10"/>
<path d="M0 1243.15C54.9714 1333.4 132.689 1407.21 221.798 1406.64C310.895 1411.44 411.384 1341.89 511.884 1270.12C612.385 1198.36 712.91 1124.37 802.031 1120.08C891.177 1110.42 968.943 1170.49 1024 1242.73" stroke="#E73A1E" stroke-width="0.405365" stroke-miterlimit="10"/>
<path d="M0 1260.97C68.5924 1368 149.709 1422.81 237.113 1415.58C324.516 1411.32 418.182 1345.08 511.872 1277.46C605.562 1209.85 699.252 1140.82 786.692 1130.95C874.132 1118.14 955.322 1164.49 1024 1260.5" stroke="#E73A1E" stroke-width="0.405365" stroke-miterlimit="10"/>
<path d="M0 1278.78C167.412 1525.72 339.611 1407.47 511.86 1280.61C684.108 1153.44 856.406 1033.52 1024 1278.36" stroke="#E73A1E" stroke-width="0.405365" stroke-miterlimit="10"/>
</g>
<g opacity="0.8">
<path d="M191.13 240.73C187.464 241.245 183.486 242.231 181.314 245.288C178.691 248.98 179.777 254.152 181.551 258.326C183.325 262.5 185.744 266.696 185.475 271.243C184.787 282.627 169.252 286.396 164.253 296.596C160.748 303.75 163.296 312.526 167.478 319.297C170.865 324.775 175.52 329.739 181.529 331.842C187.539 333.946 194.99 332.543 198.731 327.339C201.429 323.625 201.892 318.717 203.881 314.564C207.848 306.281 218.48 302.063 226.898 305.46C233.274 308.034 239.402 314.378 245.799 311.858C250.54 309.985 252.357 303.816 251.411 298.711C250.464 293.605 247.529 289.19 245.272 284.544C243.014 279.899 241.434 274.399 243.347 269.589C245.121 265.13 249.733 261.777 249.798 256.956C250.228 238.32 201.558 239.251 191.13 240.73Z" stroke="#E6273D" stroke-miterlimit="10"/>
<path d="M177.584 238.846C174.563 242.494 174.982 247.775 176.262 252.234C176.95 254.667 177.906 257.154 178.713 259.739C179.453 261.856 179.895 264.07 180.024 266.313C180.024 266.719 180.024 267.124 180.024 267.518C179.573 274.815 174.004 279.504 168.392 285.048C165.36 287.838 162.7 291.02 160.479 294.514C159.042 296.859 158.137 299.502 157.832 302.249C157.527 304.996 157.829 307.777 158.716 310.39C159.651 313.228 161.092 315.945 162.135 318.826C162.92 321.018 163.382 323.143 164.285 325.159C166.063 329.055 168.654 332.51 171.875 335.283C174.44 337.511 177.557 338.978 180.884 339.523C181.985 339.709 183.102 339.786 184.217 339.753C187.196 339.608 190.134 338.991 192.925 337.923C196.097 336.773 199.258 335.392 201.386 332.927C204.354 329.487 204.741 324.524 206.762 320.47C210.912 312.253 221.469 308.067 229.866 311.157C236.219 313.513 242.487 319.922 248.605 316.832C250.905 315.737 252.142 313.348 253.27 310.894C254.856 307.677 255.844 304.189 256.184 300.606C256.265 299.32 256.232 298.03 256.087 296.75C255.625 292.367 253.937 287.754 252.045 283.153C250.406 279.504 249.218 275.662 248.508 271.715C248.196 269.799 248.196 267.845 248.508 265.93C248.873 264.202 249.466 262.532 250.271 260.966C251.819 257.778 253.808 254.612 253.604 250.898C253.292 245.102 249.121 240.928 242.853 238.079C235.843 234.869 226.393 233.444 217.384 233.269C212.772 233.192 208.267 233.444 204.042 233.565C197.452 233.751 191.829 233.981 188.604 234.332C184.561 234.737 180.153 235.69 177.584 238.846Z" stroke="#E6323E" stroke-miterlimit="10"/>
<path d="M173.853 232.272C170.435 235.877 170.177 241.278 170.961 246.011C171.474 248.763 172.135 251.484 172.94 254.163C173.695 256.463 174.246 258.828 174.584 261.229C174.584 261.668 174.66 262.084 174.67 262.5C174.81 270.17 170.435 275.516 165.059 281.728C162.051 285.03 159.253 288.525 156.684 292.192C152.685 298.272 151.524 305.109 154.362 312.066C155.792 315.572 157.953 318.859 159.125 322.562C160.006 325.345 160.2 328.128 161.06 330.768C162.773 335.512 165.689 339.708 169.51 342.93C172.529 345.506 176.324 346.948 180.261 347.017C181.521 347.051 182.781 346.959 184.024 346.743C187.387 346.036 190.672 344.987 193.829 343.609C197.495 342.163 201.354 340.98 204.02 338.317C207.181 335.118 207.558 330.144 209.708 326.189C214.008 318.278 224.512 314.137 232.844 316.942C239.187 319.133 245.562 325.356 251.421 321.905C254.045 320.371 255.012 317.292 256.302 314.334C258.076 310.237 260.033 306.303 260.979 302.589C261.351 301.154 261.596 299.687 261.71 298.207C262.097 293.145 260.839 287.437 258.829 281.772C257.127 277.46 255.691 273.043 254.528 268.548C254.019 266.447 253.755 264.292 253.744 262.128C253.82 260.195 254.182 258.285 254.819 256.463C256.033 252.727 257.99 248.947 257.506 244.685C256.786 238.397 252.271 233.729 245.53 230.64C237.746 227.013 227.361 225.578 217.577 225.906C212.578 226.082 207.751 226.728 203.107 227.002C196.086 227.364 189.969 227.495 186.174 227.835C181.691 228.251 176.842 229.149 173.853 232.272Z" stroke="#E53A3E" stroke-miterlimit="10"/>
<path d="M170.123 225.797C166.328 229.358 165.371 234.88 165.672 239.876C165.886 242.841 166.39 245.777 167.177 248.641C167.854 251.226 168.725 253.713 169.144 256.222C169.22 256.683 169.295 257.132 169.327 257.57C170.058 265.568 166.876 271.616 161.726 278.529C158.985 282.221 155.684 286.089 152.911 289.989C147.75 297.242 146.137 305.471 150.019 313.863C151.943 318.048 154.824 321.894 156.125 326.419C157.093 329.826 156.942 333.234 157.856 336.51C159.525 342.041 162.765 346.944 167.166 350.599C170.615 353.535 175.065 354.957 179.541 354.554C180.964 354.441 182.372 354.18 183.744 353.777C187.452 352.525 191.088 351.061 194.635 349.394C198.796 347.641 203.408 346.666 206.547 343.817C209.847 340.815 210.278 335.874 212.514 331.996C216.965 324.326 227.414 320.13 235.714 322.694C242.036 324.622 248.476 330.67 254.131 326.945C257.076 325.006 257.764 321.193 259.205 317.72C261.205 312.877 263.946 308.637 265.656 304.517C266.316 302.959 266.834 301.341 267.204 299.686C268.451 293.956 267.634 287.13 265.505 280.512C263.903 275.527 261.828 270.378 260.452 265.568C259.731 263.261 259.195 260.897 258.85 258.501C258.605 256.381 258.703 254.234 259.14 252.147C260.022 247.863 261.957 243.458 261.183 238.67C260.108 231.889 255.216 226.816 248.013 223.397C239.413 219.333 228.124 217.919 217.653 218.73C212.277 219.157 207.117 220.198 202.042 220.571C194.603 221.119 187.991 221.162 183.615 221.469C178.745 221.765 173.531 222.609 170.123 225.797Z" stroke="#E5433E" stroke-miterlimit="10"/>
<path d="M166.403 219.3C162.221 222.828 160.565 228.459 160.372 233.729C160.296 236.909 160.658 240.085 161.447 243.163C162.113 245.956 163.145 248.641 163.737 251.259C163.844 251.741 163.952 252.212 164.027 252.684C165.317 261.021 163.35 267.759 158.436 275.374C155.781 279.482 152.255 283.723 149.158 287.831C142.826 296.235 140.794 305.865 145.697 315.704C148.116 320.557 151.728 324.973 153.147 330.319C154.222 334.34 153.781 338.383 154.674 342.295C156.306 348.615 159.872 354.241 164.855 358.356C166.791 359.989 169.053 361.172 171.483 361.823C173.914 362.474 176.454 362.577 178.928 362.125C180.517 361.869 182.074 361.44 183.572 360.843C187.475 359.331 191.248 357.009 195.538 355.113C200.204 353.043 205.515 352.276 209.192 349.23C212.6 346.414 213.116 341.56 215.427 337.737C220.039 330.21 230.479 326.079 238.692 328.358C244.992 330.067 251.475 335.841 256.969 331.897C260.194 329.541 260.635 325.027 262.237 321.039C264.473 315.452 267.999 310.894 270.461 306.38C271.411 304.684 272.203 302.901 272.826 301.055C274.977 294.668 274.557 286.725 272.31 279.143C270.655 273.522 268.3 267.792 266.494 262.478C265.559 259.967 264.756 257.407 264.086 254.809C263.53 252.502 263.377 250.114 263.634 247.753C264.172 242.922 266.096 237.893 265.032 232.568C263.57 225.304 258.323 219.771 250.647 216.068C241.305 211.576 229.049 210.151 217.835 211.477C212.094 212.167 206.601 213.592 201.096 214.096C193.237 214.819 186.12 214.775 181.175 215.06C175.842 215.279 170.22 216.068 166.403 219.3Z" stroke="#E44B3F" stroke-miterlimit="10"/>
<path d="M162.672 212.803C158.114 216.298 155.76 222.039 155.071 227.583C154.685 230.951 154.878 234.362 155.641 237.663C156.319 240.654 157.49 243.48 158.264 246.252C158.404 246.767 158.544 247.271 158.652 247.764C160.511 256.442 159.727 263.881 155.082 272.186C152.523 276.711 148.75 281.312 145.342 285.64C137.816 295.194 135.376 306.238 141.321 317.523C144.235 323.001 148.567 328.019 150.115 334.187C151.287 338.821 150.556 343.5 151.438 348.036C153.023 355.144 156.913 361.501 162.479 366.081C164.641 367.901 167.194 369.178 169.93 369.806C172.666 370.434 175.51 370.396 178.229 369.696C179.981 369.291 181.686 368.696 183.314 367.921C187.615 365.916 191.625 363.057 196.377 360.876C201.537 358.51 207.525 357.929 211.761 354.697C215.244 352.046 215.868 347.214 218.265 343.533C223.039 336.192 233.317 332.105 241.595 334.088C247.863 335.6 254.378 341.035 259.689 336.915C263.269 334.121 263.398 328.906 265.161 324.403C267.612 318.081 271.923 313.195 275.149 308.286C276.397 306.457 277.477 304.513 278.374 302.48C281.352 295.424 281.395 286.374 279.03 277.719C277.32 271.463 274.729 265.152 272.461 259.345C271.386 256.398 270.085 253.692 269.236 251.018C268.378 248.528 267.974 245.899 268.042 243.261C268.247 237.882 270.192 232.25 268.795 226.378C266.989 218.61 261.355 212.617 253.217 208.651C243.1 203.72 229.898 202.307 217.954 204.126C211.826 205.068 206.02 206.887 200.075 207.522C191.797 208.409 184.185 208.3 178.659 208.541C173.133 208.782 166.919 209.538 162.672 212.803Z" stroke="#E4533F" stroke-miterlimit="10"/>
<path d="M158.942 206.306C154.018 209.779 150.943 215.619 149.782 221.436C149.079 224.976 149.112 228.626 149.879 232.152C150.687 235.242 151.671 238.282 152.825 241.256C152.997 241.793 153.169 242.352 153.308 242.845C155.727 251.862 156.222 260.013 151.749 268.997C149.298 273.95 145.299 278.858 141.558 283.449C132.828 294.131 129.99 306.61 136.978 319.33C140.375 325.521 145.439 331.064 147.116 338.055C148.384 343.314 147.374 348.605 148.191 353.788C149.758 361.689 154.006 368.776 160.189 373.805C162.584 375.813 165.433 377.181 168.478 377.786C171.522 378.39 174.667 378.212 177.627 377.267C179.545 376.714 181.398 375.95 183.153 374.988C187.733 372.512 192.076 369.115 197.301 366.639C202.956 363.966 209.127 362.64 214.417 360.175C217.459 357.042 218.717 352.911 221.19 349.328C226.124 342.174 236.392 338.109 244.584 339.808C250.83 341.111 256.7 345.209 262.506 341.922C265.806 338.055 266.268 332.796 268.182 327.767C270.87 320.711 275.955 315.507 279.944 310.237C281.466 308.268 282.805 306.159 283.943 303.937C287.792 296.267 288.243 286.056 285.781 276.382C283.826 269.502 281.375 262.779 278.449 256.266C277.105 253.078 275.557 250.175 274.407 247.293C273.228 244.63 272.557 241.764 272.429 238.846C272.3 232.919 274.213 226.674 272.536 220.22C270.386 211.97 264.355 205.517 255.743 201.266C244.853 195.897 230.704 194.495 218.04 196.818C211.535 198.012 205.397 200.214 199.021 200.992C190.313 202.088 182.218 201.858 176.122 202.088C170.026 202.318 163.618 203.008 158.942 206.306Z" stroke="#E35A40" stroke-miterlimit="10"/>
<path d="M155.211 199.809C149.925 203.487 146.11 208.976 144.46 215.279C143.456 218.987 143.331 222.885 144.095 226.652C144.91 229.939 145.989 233.152 147.32 236.26C147.535 236.83 147.739 237.356 147.922 237.925C150.889 247.282 152.631 256.135 148.374 265.82C146.019 271.189 141.74 276.48 137.719 281.257C127.775 293.068 124.55 306.972 132.57 321.138C136.462 328.008 142.246 334.11 144.063 341.955C145.428 347.827 144.138 353.755 144.966 359.562C146.116 367.702 151.18 376.292 157.738 381.573C160.372 383.764 163.52 385.22 166.874 385.796C170.227 386.372 173.67 386.05 176.864 384.859C178.947 384.159 180.948 383.226 182.83 382.077C187.744 379.118 192.377 375.185 198.054 372.435C204.214 369.455 210.955 368.162 216.9 365.664C220.007 362.629 221.394 358.63 223.953 355.146C229.049 348.178 239.251 344.19 247.411 345.559C253.636 346.655 259.463 350.369 265.172 346.962C268.677 342.579 268.967 336.696 271.053 331.163C273.966 323.351 279.825 317.829 284.577 312.143C286.385 310.032 288 307.759 289.404 305.35C294.113 296.969 294.995 285.695 292.404 275.001C290.386 267.495 287.679 260.199 284.319 253.209C282.771 249.78 280.911 246.636 279.46 243.601C278.004 240.753 277.099 237.648 276.794 234.452C276.331 227.977 278.256 221.108 276.256 214.15C273.751 205.385 267.343 198.505 258.27 193.98C246.605 188.173 231.511 186.782 218.115 189.598C211.224 191.055 204.762 193.629 197.968 194.539C188.829 195.766 180.229 195.514 173.563 195.689C167.134 195.843 160.329 196.478 155.211 199.809Z" stroke="#E36140" stroke-miterlimit="10"/>
<path d="M151.481 193.312C145.726 196.996 141.385 202.58 139.182 209.132C137.871 213.006 137.585 217.163 138.354 221.184C139.01 224.789 140.622 228.109 141.934 231.308C142.181 231.899 142.428 232.469 142.633 233.039C146.148 242.746 149.148 252.311 145.105 262.676C142.848 268.471 138.322 274.103 133.989 279.11C122.819 292.016 119.206 307.377 128.28 322.935C132.667 330.484 139.171 337.178 141.117 345.779C142.579 352.276 141.009 358.816 141.805 365.27C142.88 374.133 148.331 383.545 155.459 389.253C162.307 394.731 169.564 394.906 176.251 392.397C178.515 391.55 180.678 390.448 182.701 389.11C187.959 385.67 192.861 381.2 199.011 378.154C205.676 374.867 213.051 373.618 219.588 371.098C222.749 368.162 224.275 364.284 226.909 360.887C232.166 354.116 242.315 350.106 250.432 351.246C256.636 352.111 262.42 355.464 268.032 351.925C271.751 347.028 271.87 340.53 274.106 334.483C277.245 325.937 283.889 320.097 289.404 314.005C291.501 311.759 293.391 309.32 295.049 306.72C300.628 297.692 301.929 285.3 299.231 273.588C297.349 265.415 293.855 257.351 290.393 250.087C288.62 246.416 286.459 243.13 284.706 239.843C282.953 236.813 281.799 233.464 281.309 229.982C280.503 222.959 282.438 215.476 280.126 207.982C277.277 198.746 270.45 191.372 260.925 186.574C248.486 180.328 232.457 178.959 218.319 182.268C211.062 183.977 204.268 186.935 197.043 187.987C187.486 189.378 178.39 189.083 171.144 189.203C164.231 189.367 157.028 189.959 151.481 193.312Z" stroke="#E26840" stroke-miterlimit="10"/>
<path d="M147.75 186.815C141.509 190.503 136.638 196.188 133.892 202.986C132.275 206.985 131.82 211.374 132.58 215.63C133.247 219.442 134.999 222.926 136.494 226.268C136.773 226.882 137.053 227.484 137.289 228.076C141.353 238.123 145.611 248.389 141.783 259.444C139.633 265.656 134.838 271.638 130.205 276.886C117.798 290.899 113.82 307.717 123.937 324.765C128.807 332.971 136.042 340.191 138.117 349.657C139.676 356.768 137.838 363.9 138.601 371.033C139.676 380.619 145.428 390.863 153.115 396.988C160.554 402.893 168.403 402.926 175.595 399.979C178.012 398.985 180.31 397.713 182.443 396.188C188.045 392.277 193.194 387.259 199.849 383.939C207.009 380.356 215.008 379.14 222.157 376.588C225.383 373.75 227.027 370.014 229.747 366.727C235.123 360.153 245.25 356.154 253.335 357.009C259.517 357.666 265.258 360.646 270.762 357.009C274.697 351.585 274.654 344.486 277.041 337.912C280.417 328.632 287.792 322.464 294.113 316C296.495 313.615 298.654 311.011 300.564 308.221C307.014 298.535 308.724 285.026 305.939 272.295C304.004 263.53 300.284 254.842 296.349 247.096C294.361 243.184 291.899 239.7 289.845 236.205C287.791 233.004 286.384 229.417 285.706 225.655C284.577 218.095 286.512 209.987 283.878 201.956C280.653 192.227 273.493 184.426 263.452 179.332C250.249 172.648 233.274 171.279 218.405 175.092C210.761 177.053 203.655 180.394 195.99 181.589C186.013 183.144 176.423 182.761 168.607 182.859C161.328 182.892 153.738 183.44 147.75 186.815Z" stroke="#E26E40" stroke-miterlimit="10"/>
<path d="M144.062 180.318C137.329 184.01 131.925 189.794 128.635 196.829C126.73 200.975 126.111 205.615 126.861 210.13C127.528 214.14 129.43 217.799 131.097 221.272C131.409 221.907 131.72 222.532 132 223.156C136.601 233.554 142.117 244.521 138.451 256.255C136.408 262.895 131.355 269.216 126.42 274.695C112.777 289.803 108.434 308.089 119.583 326.572C124.958 335.458 132.914 343.237 135.118 353.525C136.773 361.249 134.655 369.05 135.397 376.774C136.365 387.084 142.525 398.171 150.771 404.712C158.791 411.067 167.252 410.935 174.939 407.55C177.518 406.404 179.963 404.967 182.228 403.266C188.163 398.883 193.635 393.318 200.709 389.702C208.375 385.813 216.997 384.64 224.748 382.033C227.974 379.294 229.812 375.667 232.618 372.468C238.198 366.07 248.218 362.103 256.27 362.684C262.43 363.122 268.859 366.628 273.536 361.939C278.632 356.833 277.46 348.288 279.987 341.21C283.577 331.185 291.813 324.688 298.822 317.818C301.497 315.303 303.934 312.537 306.101 309.557C313.433 299.226 315.551 284.588 312.637 270.838C310.637 261.394 306.649 252.212 302.284 243.919C300.134 239.766 297.317 236.096 294.973 232.393C292.622 229.013 290.962 225.187 290.092 221.141C288.62 213.033 290.565 204.301 287.62 195.744C284.093 185.511 276.492 177.228 266.01 171.892C252.034 164.76 234.112 163.412 218.513 167.718C210.493 169.909 203.053 173.656 194.957 174.993C184.551 176.702 174.466 176.264 166.08 176.33C158.426 176.395 150.449 176.91 144.062 180.318Z" stroke="#E1753F" stroke-miterlimit="10"/>
<path d="M140.289 173.821C133.064 177.512 127.132 183.385 123.302 190.638C121.098 194.915 120.31 199.804 121.056 204.575C121.711 208.793 123.765 212.606 125.614 216.221C125.947 216.89 126.302 217.547 126.614 218.193C131.763 228.941 138.547 240.61 135.128 253.023C133.183 260.09 127.872 266.751 122.636 272.46C107.757 288.664 103.048 308.418 115.239 328.336C121.088 337.901 129.785 346.239 132.118 357.348C133.871 365.697 131.484 374.122 132.183 382.482C133.107 393.515 139.622 405.424 148.427 412.403C157.028 419.196 166.102 418.901 174.23 415.077C176.977 413.78 179.573 412.174 181.97 410.289C188.238 405.402 193.99 399.333 201.537 395.432C209.697 391.225 218.943 390.097 227.339 387.489C230.672 384.849 232.596 381.353 235.478 378.253C241.229 372.052 251.185 368.096 259.194 368.392C265.333 368.622 271.719 371.679 276.299 366.935C281.674 361.347 280.266 352.166 282.975 344.562C286.803 333.803 295.79 327.033 303.585 319.725C306.542 317.063 309.252 314.129 311.68 310.96C319.883 300.004 322.431 284.216 319.389 269.458C317.335 259.367 313.078 249.55 308.283 240.807C305.875 236.424 302.8 232.557 300.155 228.646C297.618 224.91 295.457 221.162 294.533 216.703C292.726 208.048 294.683 198.691 291.415 189.598C287.566 178.86 279.589 170.139 268.601 164.519C253.851 156.948 234.994 155.611 218.663 160.421C210.267 162.897 202.537 166.995 193.936 168.463C183.099 170.347 172.52 169.843 163.554 169.865C155.523 169.953 147.148 170.402 140.289 173.821Z" stroke="#E17B3F" stroke-miterlimit="10"/>
<path d="M136.537 167.324C128.798 171.039 122.33 177.035 117.97 184.536C115.469 188.942 114.51 194.084 115.25 199.118C115.917 203.501 118.11 207.511 120.142 211.269C120.507 211.97 120.894 212.638 121.217 213.318C126.904 224.416 134.956 236.786 131.753 249.879C129.914 257.373 124.335 264.374 118.852 270.312C102.725 287.601 97.6615 308.834 110.896 330.188C117.239 340.421 126.657 349.328 129.119 361.26C130.968 370.222 128.312 379.283 128.979 388.278C129.839 400.034 136.72 412.776 146.084 420.171C155.276 427.402 164.941 426.953 173.617 422.691C176.53 421.259 179.275 419.495 181.798 417.432C188.399 412.075 194.441 405.446 202.451 401.272C211.105 396.769 220.975 395.673 229.952 393.044C233.338 390.491 235.392 387.127 238.348 384.125C244.272 378.11 254.163 374.265 262.14 374.199C268.257 374.144 274.59 376.883 279.083 372.008C284.706 365.916 283.094 356.099 285.964 347.981C290.017 336.477 299.779 329.355 308.337 321.686C311.579 318.885 314.566 315.79 317.26 312.439C326.312 300.781 329.269 283.953 326.14 268.143C323.99 257.417 319.496 247.008 314.314 237.783C311.691 233.159 308.315 229.106 305.37 224.986C302.553 221.042 300.112 217.076 299.016 212.343C296.866 203.139 298.844 193.158 295.253 183.539C291.06 172.298 282.653 163.116 271.235 157.244C255.711 149.235 235.897 147.909 218.835 153.212C210.062 155.94 201.967 160.41 193.033 161.977C181.777 164.015 170.703 163.456 161.156 163.445C152.663 163.478 143.858 163.883 136.537 167.324Z" stroke="#E0803E" stroke-miterlimit="10"/>
<path d="M132.839 160.827C125.313 164.179 117.228 170.687 112.702 178.356C109.901 182.884 108.759 188.273 109.477 193.575C110.143 198.209 112.476 202.34 114.68 206.24C115.089 206.963 115.508 207.664 115.884 208.366C122.12 219.815 131.441 232.875 128.431 246.712C126.711 254.623 120.905 261.953 115.024 268.132C97.64 286.505 92.2215 309.218 106.499 332.007C113.336 342.963 123.485 352.385 126.076 365.138C128.022 374.714 125.098 384.399 125.721 394.03C126.538 406.52 133.774 420.084 143.697 427.906C153.62 435.729 163.747 434.973 172.918 430.273C175.99 428.678 178.875 426.734 181.519 424.477C188.475 418.638 194.785 411.472 203.257 407.013C212.417 402.203 223.501 402.773 232.5 398.489C236.306 396.681 238.133 392.814 241.165 389.888C247.804 383.952 256.194 380.437 265.01 379.896C271.117 379.699 277.396 381.956 281.793 377.015C287.684 370.441 285.857 359.978 288.878 351.355C293.178 339.106 303.703 331.634 313.024 323.603C316.556 320.671 319.817 317.414 322.765 313.874C332.688 301.559 336.053 283.58 332.817 266.762C330.666 255.401 325.85 244.412 320.195 234.693C317.357 229.829 313.68 225.578 310.433 221.261C307.326 217.12 304.606 212.934 303.338 207.916C300.865 198.165 302.843 187.56 298.93 177.403C294.414 165.669 285.599 156.039 273.708 149.87C257.42 141.423 236.66 140.108 218.878 145.915C209.729 148.906 201.3 153.749 191.926 155.513C180.239 157.704 168.671 157.101 158.598 157.047C149.718 157.003 140.568 157.364 132.839 160.827Z" stroke="#E0863E" stroke-miterlimit="10"/>
<path d="M129.108 154.329C121.26 157.616 112.401 164.256 107.413 172.232C104.336 176.888 103.036 182.531 103.757 188.096C104.413 192.939 106.897 197.234 109.283 201.244C109.724 201.989 110.176 202.712 110.595 203.435C117.357 215.246 127.958 229.007 125.152 243.48C123.539 251.818 117.422 259.487 111.283 265.897C92.6516 285.355 86.8353 309.568 102.198 333.825C109.498 345.417 120.4 355.431 123.12 369.006C125.152 379.206 121.969 389.516 122.561 399.782C123.313 412.995 130.903 427.391 141.396 435.641C151.889 443.891 162.629 442.982 172.305 437.833C175.545 436.086 178.582 433.973 181.358 431.533C188.647 425.211 195.237 417.52 204.182 412.776C213.858 407.659 225.522 408.295 235.144 403.945C238.983 402.214 240.971 398.467 244.089 395.673C250.881 389.946 259.218 386.454 267.999 385.659C274.084 385.232 280.309 387.073 284.62 382.066C290.748 374.944 288.716 363.9 291.899 354.752C296.414 341.769 307.735 333.935 317.819 325.553C321.638 322.483 325.172 319.061 328.377 315.331C339.127 302.348 342.944 283.262 339.611 265.447C337.364 253.396 332.311 241.87 326.226 231.669C323.184 226.564 319.195 222.127 315.647 217.591C312.261 213.208 309.261 208.826 307.821 203.556C305.004 193.257 307.004 182.027 302.768 171.344C297.67 158.786 288.262 148.547 276.299 142.54C259.227 133.644 237.531 132.351 219.007 138.651C209.471 141.938 200.731 147.12 190.915 149.027C178.81 151.382 166.747 150.714 156.061 150.615C146.815 150.528 137.279 150.856 129.108 154.329Z" stroke="#DF8C3D" stroke-miterlimit="10"/>
<path d="M125.377 147.833C117.174 151.119 107.585 157.836 102.112 166.086C98.7502 170.865 97.2798 176.761 97.9947 182.597C98.6506 187.636 101.22 192.096 103.843 196.281C104.316 197.048 104.8 197.804 105.252 198.549C112.552 210.71 124.431 225.173 121.83 240.325C120.324 249.09 113.938 257.088 107.499 263.738C87.6093 284.27 81.4491 309.974 97.8227 335.622C105.606 347.893 117.239 358.466 120.088 372.873C122.238 383.687 118.766 394.633 119.314 405.534C120.023 419.47 127.915 434.688 139.02 443.366C150.126 452.043 161.447 451.035 171.606 445.415C175.017 443.525 178.206 441.246 181.11 438.622C188.733 431.818 195.613 423.579 205.02 418.55C215.169 413.127 227.468 413.828 237.714 409.434C241.584 407.78 243.724 404.208 246.927 401.48C253.864 395.94 262.154 392.435 270.902 391.346C276.966 390.71 283.126 392.135 287.362 387.04C293.715 379.371 291.501 367.746 294.887 358.083C299.628 344.365 311.723 336.247 322.571 327.405C326.677 324.201 330.485 320.618 333.945 316.701C345.599 303.06 349.792 282.857 346.363 264.023C344.051 251.391 338.73 239.229 332.215 228.536C328.989 223.189 324.689 218.555 320.829 213.822C317.142 209.275 313.863 204.662 312.229 199.086C309.089 188.239 311.1 176.384 306.531 165.121C301.123 152.089 291.324 141.454 278.901 135.134C261.065 125.8 238.423 124.518 219.169 131.321C209.256 134.827 200.172 140.415 189.937 142.464C177.401 144.984 164.855 144.261 153.588 144.129C143.912 144.064 133.989 144.348 125.377 147.833Z" stroke="#DF913C" stroke-miterlimit="10"/>
<path d="M121.647 141.335C113.046 144.622 102.768 151.415 96.8229 159.961C93.1713 164.855 91.5221 171.001 92.2215 177.107C92.8773 182.355 95.6511 186.968 98.4033 191.351C98.9086 192.15 99.4784 192.917 99.9085 193.695C107.746 206.207 120.916 221.36 118.508 237.202C117.11 246.384 110.455 254.732 103.714 261.613C82.5672 283.153 76.0629 310.346 93.5332 337.452C101.822 350.391 114.175 361.556 117.185 376.752C119.411 388.19 115.702 399.76 116.207 411.286C116.852 425.956 125.162 441.963 136.773 451.101C148.384 460.238 160.425 459.011 171.047 452.996C174.619 450.955 177.952 448.507 180.981 445.699C188.948 438.413 196.108 429.638 205.988 424.324C216.631 418.605 229.522 419.35 240.391 414.912C244.283 413.335 246.594 409.916 249.873 407.243C256.949 401.894 265.202 398.392 273.912 397.043C279.954 396.188 286.039 397.185 290.211 392.025C296.78 383.851 294.393 371.602 297.887 361.424C302.854 346.951 315.712 338.504 327.344 329.311C331.73 325.96 335.811 322.213 339.536 318.114C352.061 303.816 356.673 282.495 353.125 262.643C350.76 249.375 345.191 236.611 338.224 225.392C334.763 219.804 330.15 214.983 326.022 210.053C322.044 205.298 318.496 200.466 316.712 194.616C313.228 183.221 315.26 170.742 310.369 158.997C304.66 145.456 294.445 134.402 281.524 127.782C262.946 117.922 239.337 116.739 219.341 124.035C209.052 127.793 199.656 133.765 188.991 135.956C176.025 138.629 162.973 137.862 151.137 137.676C140.999 137.588 130.699 137.829 121.647 141.335Z" stroke="#DE973B" stroke-miterlimit="10"/>
<path d="M117.916 134.838C108.982 138.125 97.9518 144.995 91.5227 153.782C87.8244 158.843 85.6527 164.738 86.459 171.585C87.1148 177.064 90.0391 181.819 92.9096 186.289C93.4471 187.11 93.9847 187.91 94.5222 188.71C102.886 201.584 117.336 217.426 115.121 233.948C113.842 243.557 106.918 252.234 99.8762 259.356C77.4713 282.024 70.6229 310.719 89.1253 339.238C97.898 352.856 110.982 364.547 114.089 380.597C116.411 392.649 112.433 404.844 112.906 417.016C113.498 432.409 122.163 449.282 134.344 458.803C146.525 468.324 159.157 467.02 170.295 460.545C174.035 458.358 177.516 455.74 180.669 452.744C188.969 444.976 196.42 435.674 206.751 430.076C217.9 424.039 231.392 424.817 242.907 420.369C246.841 418.846 249.303 415.592 252.668 413.05C259.89 407.911 268.11 404.41 276.772 402.784C282.793 401.688 288.813 402.302 292.898 397.054C299.693 388.343 297.124 375.503 300.79 364.809C305.982 349.602 319.625 340.826 331.967 331.251C336.685 327.768 341.083 323.855 345.105 319.56C358.501 304.605 363.521 282.178 359.877 261.295C357.393 247.392 351.556 234.047 344.159 222.411C340.493 216.594 335.558 211.576 331.14 206.426C326.839 201.485 323.044 196.434 321.087 190.299C317.271 178.356 319.324 165.242 314.099 152.971C308.088 138.927 297.468 127.453 284.061 120.518C264.709 110.274 240.154 109.058 219.427 116.848C208.762 120.858 199 127.202 187.937 129.546C174.552 132.373 161.006 131.551 148.599 131.332C138.096 131.113 127.409 131.321 117.916 134.838Z" stroke="#DD9C3A" stroke-miterlimit="10"/>
<path d="M114.186 128.341C104.897 131.628 93.1246 138.563 86.2332 147.635C82.2661 152.861 79.9009 158.975 80.7073 166.075C81.3523 171.728 84.4271 176.68 87.5341 181.282C88.1039 182.136 88.6845 182.958 89.2435 183.791C98.1453 197.015 113.874 213.559 111.82 230.76C110.649 240.796 103.456 249.802 96.1133 257.165C72.4613 280.907 65.2582 311.091 84.7819 341.056C94.0384 355.3 107.853 367.592 111.089 384.465C113.508 397.13 109.262 409.96 109.692 422.812C110.229 438.928 119.26 456.634 132 466.582C144.74 476.53 157.996 475.073 169.628 468.16C173.54 465.827 177.173 463.04 180.454 459.855C189.055 451.616 196.817 441.766 207.622 435.883C219.276 429.539 233.349 430.328 245.508 425.88C249.465 424.433 252.099 421.333 255.539 418.89C262.898 413.951 271.093 410.448 279.707 408.558C285.706 407.276 291.651 407.462 295.672 402.116C302.66 392.858 299.973 379.425 303.757 368.228C309.132 352.276 323.603 343.171 336.752 333.168C341.723 329.55 346.365 325.484 350.62 321.018C364.865 305.394 370.305 281.86 366.553 259.958C364.059 245.42 357.952 231.472 350.136 219.333C346.255 213.274 341.03 208.07 336.3 202.712C331.752 197.563 327.645 192.293 325.549 185.872C321.399 173.393 323.463 159.654 317.916 146.846C311.589 132.31 300.556 120.428 286.663 113.189C266.537 102.496 241.047 101.29 219.588 109.584C208.536 113.857 198.484 120.54 186.959 123.06C173.09 125.997 159.114 125.142 146.094 124.901C135.193 124.649 124.109 124.813 114.186 128.341Z" stroke="#DDA138" stroke-miterlimit="10"/>
<path d="M110.455 121.844C100.779 125.131 88.3081 132.143 80.933 141.489C76.6326 146.868 74.1277 153.201 74.9232 160.564C75.579 166.425 78.7936 171.52 82.0726 176.286L83.8572 178.861C93.2966 192.457 110.315 209.68 108.498 227.583C107.423 238.035 99.9729 247.37 92.372 254.973C67.4406 279.778 59.9149 311.464 80.4815 342.864C90.2326 357.82 104.768 370.638 108.122 388.333C110.649 401.623 106.133 415.077 106.531 428.509C107.015 445.36 116.4 463.898 129.699 474.262C142.998 484.627 156.888 483.027 169.015 475.698C173.082 473.216 176.862 470.276 180.282 466.933C189.259 458.168 197.269 447.814 208.536 441.646C220.684 435.006 235.349 435.784 248.153 431.358C252.142 429.977 254.926 427.03 258.452 424.685C265.949 419.952 274.125 416.44 282.685 414.277C288.663 412.776 294.511 412.524 298.489 407.123C305.66 397.328 302.789 383.315 306.767 371.592C312.422 354.905 327.624 345.472 341.536 335.118C346.779 331.348 351.683 327.109 356.189 322.453C371.305 306.172 377.153 281.52 373.305 258.611C370.746 243.426 364.381 228.909 356.103 216.265C352.007 209.965 346.481 204.564 341.45 199.009C336.622 193.651 332.225 188.173 329.925 181.479C325.441 168.452 327.527 154.088 321.657 140.755C315.023 125.703 303.583 113.383 289.2 105.804C268.3 94.6728 241.896 93.4896 219.674 102.276C208.246 106.801 197.86 113.89 185.905 116.52C171.671 119.664 157.136 118.711 143.579 118.437C132.29 118.174 120.819 118.327 110.455 121.844Z" stroke="#DCA637" stroke-miterlimit="10"/>
<path d="M106.735 115.347C96.7046 118.634 83.4917 125.712 75.6328 135.342C71.1066 140.886 68.3544 147.394 69.1822 155.064C69.838 161.122 73.1923 166.403 76.7079 171.29C77.3529 172.188 77.998 173.065 78.6215 173.941C88.5984 187.899 106.896 205.813 105.273 224.395C104.327 235.263 96.5971 244.938 88.6522 252.782C62.3554 278.65 54.518 311.825 76.1166 344.672C86.3622 360.307 101.629 373.684 105.144 392.2C107.767 406.104 102.994 420.182 103.338 434.261C103.779 451.791 113.519 471.195 127.377 481.987C141.235 492.778 155.749 491.047 168.381 483.268C172.617 480.63 176.541 477.505 180.078 473.956C189.399 464.752 197.688 453.818 209.417 447.376C222.071 440.419 237.37 441.186 250.776 436.781C254.797 435.466 257.743 432.683 261.344 430.437C268.973 425.906 277.138 422.387 285.642 419.963C291.598 418.243 297.382 417.575 301.273 412.086C308.627 401.732 305.638 387.149 309.767 374.911C315.647 357.48 331.623 347.74 346.32 336.981C351.855 333.083 357.033 328.682 361.79 323.833C377.777 306.906 384.034 281.104 380.067 257.208C377.455 241.388 370.821 226.279 362.134 213.154C357.834 206.58 351.986 201.036 346.664 195.251C341.536 189.773 336.88 183.999 334.408 177.02C329.581 163.445 331.688 148.446 325.484 134.586C318.546 119.038 306.695 106.308 291.823 98.4308C270.149 86.861 242.767 85.6778 219.846 94.9687C208.02 99.7456 197.333 107.207 184.959 109.99C170.284 113.277 155.265 112.323 141.138 111.962C129.387 111.754 117.529 111.808 106.735 115.347Z" stroke="#DBAB35" stroke-miterlimit="10"/>
<path d="M103.005 108.85C92.6085 112.137 78.6646 119.291 70.3434 129.185C65.5807 134.893 62.5919 141.653 63.4305 149.553C64.0756 155.831 67.5804 161.265 71.2249 166.294C71.9022 167.225 72.5795 168.123 73.2461 169.022C83.7498 183.331 103.349 201.89 101.908 221.206C101.07 232.502 93.0601 242.516 84.8249 250.591C57.3347 277.521 49.1318 312.253 71.7732 346.48C82.5242 362.794 98.5001 376.73 102.112 396.068C104.832 410.585 99.7902 425.299 100.102 440.002C100.489 458.31 110.584 478.502 125.001 489.711C139.418 500.919 154.566 499.045 167.682 490.806C172.087 488.002 176.163 484.694 179.831 480.946C189.507 471.26 198.054 459.8 210.256 453.062C223.404 445.809 239.284 446.488 253.335 442.182C257.399 440.923 260.495 438.304 264.183 436.157C271.94 431.829 280.101 428.299 288.544 425.617C294.479 423.677 300.188 422.582 304.015 417.027C311.541 406.071 308.412 390.962 312.702 378.209C318.808 360.033 335.58 349.964 351.007 338.821C356.828 334.778 362.279 330.21 367.295 325.17C384.142 307.574 390.818 280.699 386.765 255.751C384.088 239.317 377.186 223.606 368.069 209.987C363.554 203.205 357.404 197.431 351.792 191.449C346.417 185.708 341.428 179.781 338.783 172.517C333.634 158.394 335.752 142.771 329.226 128.385C321.959 112.38 309.701 99.2744 294.361 91.1121C271.913 79.0602 243.584 77.9646 219.932 87.7266C207.751 92.7665 196.71 100.6 183.905 103.525C168.854 106.977 153.298 105.958 138.59 105.563C126.485 105.235 114.239 105.3 103.005 108.85Z" stroke="#DBAF33" stroke-miterlimit="10"/>
<path d="M99.2741 102.364C88.5232 105.651 73.8482 112.86 65.0432 123.038C59.958 128.911 56.8294 135.89 57.625 144.053C58.2808 150.528 61.9254 156.104 65.7527 161.298C66.4623 162.251 67.1718 163.182 67.9029 164.102C78.9441 178.773 99.8117 198.067 98.5861 218.018C97.8657 229.741 89.5768 240.084 81.0405 248.4C52.314 276.393 43.7671 312.57 67.4621 348.288C78.6861 365.27 95.4145 379.776 99.1451 399.935C101.962 415.077 96.6509 430.415 96.9197 445.754C97.2529 464.785 107.671 485.799 122.722 497.446C137.773 509.092 153.48 507.054 167.091 498.41C171.658 495.467 175.881 492.005 179.68 488.089C189.679 477.922 198.527 465.925 211.191 458.902C224.834 451.342 241.294 452.021 256.001 447.726C260.097 446.532 263.344 444.089 267.118 442.018C275.008 437.909 283.17 434.365 291.544 431.412C297.457 429.221 303.08 427.753 306.853 422.111C314.519 410.639 311.293 394.917 315.744 381.649C322.076 362.739 339.622 352.341 355.813 340.804C361.918 336.624 367.643 331.894 372.918 326.671C390.635 308.418 397.645 280.436 393.559 254.458C390.786 237.367 383.647 221.086 374.111 206.985C369.381 199.962 362.93 194.002 357.017 187.812C351.308 181.862 346.094 175.76 343.277 168.178C337.784 153.508 339.923 137.249 333.064 122.337C325.506 105.806 312.835 92.258 296.995 83.7713C273.783 71.3141 244.508 70.1637 220.125 80.4845C207.493 85.7435 196.129 93.9497 182.895 97.0284C167.371 100.633 151.362 99.5702 136.085 99.121C123.636 98.7595 110.95 98.7923 99.2741 102.364Z" stroke="#DAB431" stroke-miterlimit="10"/>
<path d="M95.5436 95.867C84.4271 99.1539 69.0318 106.44 59.743 116.892C54.3675 122.918 51.0562 130.116 51.8625 138.542C52.5076 145.225 56.3027 150.999 60.3128 156.302C61.0438 157.277 61.7964 158.23 62.5275 159.183C74.1062 174.215 96.2639 194.243 95.221 214.83C94.619 226.98 86.0612 237.652 77.2347 246.208C47.2396 275.264 38.3486 312.943 63.0758 350.106C74.7943 367.757 92.243 382.822 96.1134 403.792C99.0269 419.547 93.4579 435.565 93.6837 451.495C93.9632 471.216 104.768 493.129 120.314 505.181C135.86 517.233 152.255 515.041 166.371 505.991C171.104 502.905 175.473 499.273 179.39 495.167C189.732 484.528 198.86 471.983 211.987 464.676C226.135 456.82 243.165 457.433 258.538 453.204C262.667 452.109 266.064 449.797 269.924 447.825C277.632 443.903 286.856 440.156 294.404 437.154C300.295 434.776 305.843 432.859 309.562 427.139C317.378 415.088 314.046 398.807 318.647 385.024C325.205 365.379 343.535 354.664 360.49 342.733C366.887 338.408 372.892 333.51 378.433 328.095C397.01 309.185 404.461 280.085 400.247 253.089C397.408 235.362 390.001 218.489 380.035 203.906C375.089 196.642 368.338 190.485 362.124 184.087C356.135 177.94 350.631 171.586 347.642 163.763C341.815 148.545 343.987 131.661 336.794 116.224C328.925 99.1903 315.841 85.2217 299.51 76.4197C275.514 63.5462 245.304 62.4505 220.179 73.1767C207.278 78.7205 195.549 87.2993 181.884 90.5204C165.941 94.2893 149.438 93.1718 133.58 92.7116C120.679 92.2953 107.66 92.2843 95.5436 95.867Z" stroke="#D9B82F" stroke-miterlimit="10"/>
<path d="M91.813 89.3699C80.331 92.6567 64.2046 100.019 54.4535 110.735C48.8093 116.936 45.2937 124.342 46.1 133.03C46.7451 139.922 50.6907 145.86 54.8728 151.305C55.6361 152.302 56.4209 153.289 57.195 154.264C69.3005 169.602 92.7376 190.31 91.899 211.652C91.4045 224.208 82.5779 235.219 73.4504 244.017C42.1867 274.125 32.9624 313.348 58.7324 351.914C70.9347 370.244 89.1145 385.878 93.1354 407.67C96.1456 424.105 90.3079 440.648 90.5014 457.247C90.7271 477.746 101.887 500.404 117.992 512.894C134.096 525.384 151.126 523.072 165.726 513.551C170.624 510.313 175.144 506.516 179.197 502.233C189.872 491.102 199.29 478.02 212.879 470.46C227.522 462.287 245.132 462.791 261.151 458.693C265.322 457.598 268.881 455.505 272.816 453.632C280.685 449.896 289.856 446.203 297.36 442.884C303.23 440.298 308.692 437.964 312.347 432.157C320.303 419.547 316.873 402.707 321.646 388.409C328.43 368.009 347.535 356.976 365.252 344.661C371.935 340.205 378.21 335.145 384.002 329.541C403.45 309.974 411.32 279.745 406.987 251.752C404.095 233.389 396.419 215.936 386.023 200.849C380.873 193.355 373.81 187.012 367.295 180.405C361.016 174.062 355.243 167.488 352.082 159.38C345.922 143.614 348.105 126.095 340.579 110.132C332.415 92.5892 318.923 78.1937 302.101 69.0789C277.374 55.7452 246.196 54.6277 220.33 65.9016C207.02 71.7084 194.99 80.6487 180.895 84.0232C164.522 87.9456 147.567 86.7842 131.108 86.2145C117.776 85.8201 104.359 85.7872 91.813 89.3699Z" stroke="#D8BC2C" stroke-miterlimit="10"/>
<path d="M88.0824 82.873C76.2564 86.1599 59.3774 93.5663 49.1533 104.588C43.2295 110.932 39.5312 118.568 40.3375 127.531C40.9718 134.619 45.0679 140.678 49.4221 146.299C50.2284 147.329 51.0455 148.336 51.8518 149.334C64.5056 165.1 89.2328 186.431 88.577 208.464C88.1899 221.447 79.0946 232.787 69.6661 241.826C37.1337 272.996 27.5762 313.688 54.389 353.722C67.0858 372.72 86.0075 388.946 90.1143 411.538C93.2106 428.531 87.1256 445.754 87.2653 463.032C87.4481 484.254 98.9624 507.745 115.626 520.662C132.29 533.579 149.954 531.114 165.081 521.155C170.143 517.765 174.81 513.799 178.992 509.333C190.001 497.72 199.699 484.134 213.761 476.234C228.898 467.754 247.089 468.204 263.763 464.183C267.978 463.164 271.687 461.224 275.697 459.45C283.728 455.9 292.834 452.229 300.306 448.636C306.154 445.82 311.519 443.092 315.131 437.197C323.205 424.05 319.701 406.608 324.624 391.795C331.645 370.66 351.502 359.299 370.004 346.589C376.974 341.999 383.522 336.778 389.571 330.988C409.879 310.752 418.179 279.417 413.739 250.394C410.793 231.396 402.837 213.351 392.011 197.804C386.636 190.069 379.282 183.561 372.466 176.713C365.908 170.139 359.855 163.379 356.512 154.998C350.061 138.684 352.211 120.541 344.374 104.051C335.894 86.0191 321.988 71.215 304.681 61.7932C279.126 47.9555 247.013 46.8489 220.394 58.6159C206.697 64.6857 194.345 73.9547 179.831 77.5264C163.027 81.6021 145.535 80.4188 128.538 79.8162C114.863 79.378 101.059 79.2794 88.0824 82.873Z" stroke="#D7C029" stroke-miterlimit="10"/>
<path d="M84.3518 76.3758C72.1495 79.6627 54.561 87.1458 43.8638 98.4416C37.6283 104.95 33.7687 112.849 34.5643 122.019C35.2093 129.316 39.4452 135.583 43.9821 141.302C44.8207 142.398 45.6807 143.395 46.5086 144.414C59.6892 160.542 85.7065 182.564 85.2119 205.276C84.9431 218.686 75.5361 230.355 65.8602 239.635C32.0808 271.857 22.19 314.06 50.0349 355.53C63.2263 375.251 82.8575 391.948 87.1148 415.405C90.3401 433.012 83.9541 450.871 84.0616 468.751C84.1798 490.664 96.0596 515.008 113.293 528.353C130.527 541.698 148.771 539.09 164.393 528.693C169.621 525.154 174.436 521.018 178.745 516.367C190.087 504.315 200.064 490.127 214.589 481.964C230.231 473.199 248.992 473.528 266.333 469.617C270.512 468.5 274.593 467.034 278.535 465.234C286.727 461.871 295.737 458.211 303.209 454.344C309.036 451.32 314.314 448.175 317.873 442.193C326.065 428.421 322.485 410.486 327.549 395.147C334.795 373.235 355.501 361.588 374.702 348.496C381.969 343.763 388.806 338.377 395.129 332.401C416.308 311.507 425.017 279.055 420.48 249.024C417.469 229.379 409.245 210.754 397.989 194.692C392.409 186.716 384.733 179.989 377.627 172.966C370.778 166.217 364.446 159.216 360.93 150.549C354.103 133.688 356.329 114.909 348.147 97.8938C339.375 79.37 325.074 64.1516 307.294 54.4195C280.986 40.1764 247.938 39.0808 220.631 51.3737C206.558 57.6954 193.872 67.3917 178.928 71.0949C161.726 75.313 143.718 74.0969 126.141 73.4505C111.96 72.9027 97.8335 72.7712 84.3518 76.3758Z" stroke="#D6C426" stroke-miterlimit="10"/>
<path d="M80.632 69.8787C68.0641 73.1656 49.7553 80.7254 38.5743 92.2952C32.1238 98.9675 28.0062 107.031 28.8125 116.508C29.4575 124.013 33.8332 130.445 38.5528 136.306C39.4236 137.402 40.316 138.498 41.1868 139.495C54.8942 155.984 82.1909 178.685 81.9328 202.088C81.7823 215.914 72.1387 227.922 62.1081 237.443C27.0171 270.717 16.8037 314.444 45.6914 357.348C59.3666 377.694 79.7289 394.994 84.1153 419.273C87.4051 437.504 80.7825 455.987 80.89 474.492C80.9653 497.172 93.1998 522.316 110.993 536.077C128.957 549.97 147.686 547.099 163.78 536.263C169.171 532.575 174.13 528.27 178.562 523.434C190.259 510.867 200.516 496.175 215.502 487.738C231.629 478.645 250.981 478.875 268.978 475.084C273.233 474.05 277.402 472.68 281.449 470.986C289.929 467.92 298.191 464.259 306.176 460.03C311.971 456.743 317.163 453.226 320.668 447.167C328.968 432.804 325.334 414.299 330.57 398.478C338.042 375.864 359.49 363.856 379.486 350.358C387.012 345.264 394.377 339.961 400.687 333.781C422.737 312.231 431.865 278.661 427.21 247.611C424.146 227.32 415.653 208.168 403.966 191.57C398.172 183.352 390.194 176.428 382.798 169.208C375.659 162.262 369.047 155.031 365.36 146.09C358.2 128.681 360.447 109.277 351.932 91.7364C342.838 72.7076 328.112 57.0682 309.831 47.0241C282.76 32.3756 248.766 31.2909 220.717 44.0549C206.278 50.6287 193.248 60.6755 177.885 64.5102C160.221 68.8927 141.751 67.6218 123.603 66.9315C109.057 66.4275 94.4899 66.2741 80.632 69.8787Z" stroke="#D5C822" stroke-miterlimit="10"/>
<path d="M76.9014 63.3819C64.0003 66.6688 44.9281 74.3381 33.2634 86.138C26.5118 92.9747 22.2329 101.258 23.0392 111.009C23.6736 118.678 28.1997 125.306 33.1021 131.311C34.0052 132.406 34.919 133.502 35.8329 134.597C50.0456 151.481 78.7076 174.829 78.6001 198.921C78.6001 213.164 68.6447 225.512 58.3131 235.274C21.9642 269.6 11.4175 314.816 41.3481 359.178C55.5071 380.192 76.6004 398.062 81.1265 423.163C84.5131 442.007 77.6647 461.126 77.654 480.266C77.7185 503.669 90.2648 529.646 108.617 543.813C127.173 558.154 146.492 555.119 163.081 543.813C168.639 539.971 173.749 535.498 178.315 530.479C190.345 517.43 200.892 502.201 216.341 493.48C232.983 484.09 252.894 484.178 271.536 480.54C275.868 479.587 280.129 478.324 284.287 476.76C292.802 473.78 301.714 470.187 309.089 465.738C314.863 462.265 319.958 458.321 323.42 452.164C331.817 437.23 328.118 418.199 333.515 401.831C341.213 378.483 363.446 366.146 384.206 352.265C392.043 347.028 399.666 341.561 406.235 335.195C429.134 312.976 438.681 278.299 433.929 246.23C430.801 225.304 422.039 205.517 409.922 188.48C403.923 180.022 395.634 172.911 387.937 165.472C380.508 158.329 373.616 150.889 369.757 141.653C362.231 123.707 364.532 103.668 355.684 85.6011C346.287 66.0781 331.155 50.0244 312.39 39.6726C284.534 24.5749 249.604 23.5122 220.824 36.7692C205.988 43.6278 192.635 54.0472 176.842 58.0681C158.748 62.5821 139.794 61.2783 121.077 60.5552C106.155 59.9526 91.2002 59.7663 76.9014 63.3819Z" stroke="#D4CC1E" stroke-miterlimit="10"/>
<path d="M73.1708 56.8848C59.8719 60.1716 40.1117 67.9286 27.9524 79.9805C20.9213 86.9815 16.4489 95.4726 17.2015 105.487C17.8465 113.397 22.5124 120.157 27.5976 126.303C28.5329 127.399 29.479 128.495 30.4251 129.59C45.2506 146.89 75.1705 170.917 75.2565 195.711C75.3425 210.382 65.1291 223.102 54.5072 233.061C16.9112 268.428 6.03124 315.167 36.9939 360.964C51.6582 382.657 73.4718 401.086 78.1162 426.997C81.5995 446.477 74.4717 466.22 74.4287 485.996C74.4287 510.1 87.3298 536.921 106.262 551.537C125.399 566.316 145.331 563.106 162.414 551.405C168.136 547.415 173.394 542.776 178.089 537.578C190.453 524.047 201.279 508.281 217.201 499.231C234.338 489.535 254.829 489.491 274.127 485.996C278.535 485.13 282.883 483.977 287.147 482.545C295.823 479.751 304.671 476.147 312.014 471.457C317.765 467.765 322.764 463.416 326.183 457.214C334.666 441.689 330.924 422.154 336.483 405.238C344.406 381.134 367.413 368.491 388.936 354.226C397.053 348.835 404.966 343.215 411.782 336.696C435.552 313.819 445.519 278.025 440.648 244.937C437.423 223.376 428.435 202.997 415.921 185.478C409.707 176.779 401.117 169.471 393.119 161.834C385.378 154.483 378.207 146.813 374.132 137.26C366.295 118.766 368.606 98.0802 359.414 79.4984C349.717 59.481 334.166 43.0211 314.906 32.3866C286.287 16.8397 250.4 15.7879 220.899 29.549C205.741 36.6157 192.055 47.3967 175.842 51.4943C157.318 56.1726 137.87 54.7812 118.572 54.0361C103.209 53.4774 87.9103 53.2911 73.1708 56.8848Z" stroke="#D3D018" stroke-miterlimit="10"/>
<path d="M69.4403 50.3986C55.7651 53.6854 35.2953 61.4644 22.6737 73.8559C15.3738 80.9993 10.7509 89.7095 11.5035 99.9974C12.1378 108.116 16.965 115.029 22.2544 121.318C23.222 122.414 24.2111 123.608 25.1787 124.737C40.488 142.321 71.6765 167.06 71.9775 192.534C72.1818 207.62 61.6888 220.625 50.7767 230.881C11.826 267.266 0.645051 315.539 32.6506 362.772C47.7986 385.133 70.3434 404.131 75.1168 430.865C78.6968 450.958 71.3002 471.337 71.2249 491.737C71.1604 516.597 84.4486 544.229 103.919 559.261C123.646 574.49 144.181 571.115 161.759 558.976C167.647 554.834 173.057 550.027 177.885 544.645C190.582 530.632 201.687 514.329 218.072 505.038C235.714 495.035 256.84 494.827 276.74 491.507C281.225 490.726 285.662 489.68 290.028 488.374C298.865 485.766 307.659 482.184 314.959 477.209C320.762 473.462 325.563 468.309 328.936 462.21C337.536 446.094 333.72 425.978 339.428 408.591C347.588 383.753 371.369 370.77 393.656 356.11C402.063 350.632 410.256 344.803 417.308 338.065C441.949 314.531 452.324 277.62 447.357 243.513C444.132 221.316 434.811 200.356 421.834 182.333C415.384 173.404 406.514 165.899 398.182 158.065C390.184 150.506 382.733 142.639 378.53 132.866C370.37 113.824 372.692 92.5143 363.166 73.4066C353.071 53.0609 337.364 35.8268 317.454 25.0239C302.637 17.1344 286.253 12.7856 269.543 12.3072C252.832 11.8288 236.234 15.2334 221.007 22.263C205.418 29.6146 191.42 40.779 174.778 45.0519C155.889 49.8617 135.935 48.4374 116.11 47.6376C100.349 47.0021 84.6098 46.783 69.4403 50.3986Z" stroke="#D2D311" stroke-miterlimit="10"/>
<path d="M5.741 94.4866C6.49356 104.347 13.3204 112.466 19.814 119.806C35.6608 137.753 68.1072 163.182 68.6232 189.346C68.9242 204.86 58.184 218.204 46.9601 228.679C6.80534 266.16 -4.74116 315.912 28.3072 364.536C43.9391 387.544 67.2148 407.134 72.1173 434.656C75.7941 455.363 68.1179 476.366 68.0212 497.413C67.8921 523.007 81.5351 551.449 101.575 566.908C128.452 587.725 156.888 574.709 177.648 551.635C190.689 537.14 202.075 520.3 218.932 510.725C237.069 500.415 258.786 500.053 279.32 496.898C299.854 493.743 322.055 485.876 331.72 467.141C340.321 450.444 336.547 429.791 342.417 411.878C353.964 376.653 396.226 364.711 422.899 339.402C448.4 315.211 459.205 277.193 454.076 242.067C450.776 219.234 441.175 197.683 427.801 179.178C414.76 161.166 391.893 148.884 382.98 128.352C374.477 108.763 376.809 86.8282 366.972 67.1837C356.533 46.3669 340.396 28.6506 320.055 17.5848C304.864 9.47245 288.052 5.01176 270.908 4.54458C253.763 4.0774 236.742 7.61613 221.147 14.8896C205.192 22.4932 190.861 34.0411 173.778 38.4455C139.128 47.3858 101.07 35.5969 65.6667 43.8141C43.552 49.0292 3.54781 65.7375 5.741 94.4866Z" stroke="#D1D706" stroke-miterlimit="10"/>
</g>
<defs>
<linearGradient id="paint0_linear_12_8918" x1="512" y1="0" x2="512" y2="1588" gradientUnits="userSpaceOnUse">
<stop offset="0.0989583" stop-color="#FC2F00" stop-opacity="0.25"/>
<stop offset="0.864583" stop-color="#9381FF"/>
</linearGradient>
<clipPath id="clip0_12_8918">
<rect width="1024" height="676.786" fill="white" transform="translate(0 752.21)"/>
</clipPath>
</defs>
</svg>
