<svg width="271" height="427" viewBox="0 0 271 427" fill="none" xmlns="http://www.w3.org/2000/svg">
<path d="M75.6288 51.5155C56.7556 56.0709 32.8709 61.954 42.0053 87.8979C45.2634 97.1793 49.3627 107.386 46.1046 116.595C41.958 128.288 28.7479 132.161 19.0803 139.104C1.68802 151.601 -4.83999 178.775 5.31339 198.921C11.1187 210.456 31.8401 223.087 33.2381 235.632C33.6883 239.713 31.07 243.269 28.7953 246.497C11.4267 271.053 7.99093 299.725 23.5113 327.386C34.4584 347.009 46.7444 328.738 57.348 321.381C65.0607 316.022 75.7473 315.291 69.9775 327.886C64.7069 339.6 62.2062 352.43 62.6794 365.328C62.9874 374.292 66.6839 388.982 78.721 387.252C95.9355 384.816 92.9381 344.451 111.326 343.939C124.358 343.537 117.083 373.574 117.036 397.447C116.977 412.721 119.714 425.547 132.497 426.448C146.288 427.435 158.041 414.11 162.448 401.284C166.76 388.787 166.5 375.096 166.18 361.771C165.888 349.591 165.611 337.411 165.351 325.23C165.197 317.752 165.149 309.908 168.514 303.306C175.954 288.69 194.507 286.253 207.706 279.847C209.714 278.964 211.583 277.778 213.25 276.327C213.885 275.739 214.449 275.077 214.933 274.353C217.942 269.774 214.174 266.972 214.648 262.636C215.374 256.755 218.033 251.306 222.183 247.191C228.893 240.068 236.458 233.851 244.694 228.69C254.859 222.319 267.204 215.925 269.491 203.988C271.529 193.135 263.78 183.196 256.577 175.169C256.707 174.853 223.759 151.589 223.771 151.247C216.923 145.961 214.542 136.217 215.075 127.338C215.608 118.458 218.546 109.956 220.311 101.26C226.235 72.4168 218.937 40.3584 199.685 18.4339C195.953 14.183 191.06 13.2817 186.889 10.2122C182.719 7.1428 180.788 2.78227 175.741 1.23538C171.571 -0.0557299 167.116 0.56546 162.886 1.47898C152.621 3.77295 143.025 8.52166 134.879 15.3401C114.287 32.4899 100.13 45.5959 75.6288 51.5155Z" stroke="#DBAB34" stroke-miterlimit="10"/>
</svg>
