<svg width="260" height="409" viewBox="0 0 260 409" fill="none" xmlns="http://www.w3.org/2000/svg">
<path d="M71.6825 50.0591C53.7455 54.5536 31.0339 60.2295 39.6944 85.0404C42.7984 93.9197 46.7081 103.639 43.6396 112.482C39.7181 123.676 27.1953 127.439 18.0372 134.114C1.56925 146.136 -4.57958 172.08 5.13534 191.361C10.6918 202.408 30.4415 214.503 31.8158 226.513C32.2542 230.398 29.778 233.821 27.6337 236.902C11.2842 260.386 8.20382 287.791 23.0013 314.222C33.4745 332.93 45.2153 315.659 55.3567 308.729C62.7259 303.674 72.891 302.98 67.4767 315.013C62.5208 326.212 60.2186 338.459 60.7592 350.75C61.1146 359.276 64.6925 373.271 76.1609 371.663C92.6407 369.349 89.8802 331.055 107.521 330.543C120.032 330.141 113.22 358.557 113.279 381.152C113.279 395.597 115.909 407.704 128.076 408.459C141.192 409.312 152.364 396.559 156.51 384.27C160.61 372.321 160.349 359.215 160.065 346.511C159.772 334.843 159.504 323.182 159.259 311.53C159.105 304.368 159.058 296.914 162.256 290.568C169.365 276.597 186.994 274.1 199.6 267.986C201.52 267.136 203.305 265.995 204.895 264.6C205.506 264.041 206.047 263.407 206.507 262.712C209.386 258.339 205.831 255.672 206.293 251.531C207.026 245.917 209.591 240.725 213.568 236.805C220.011 230.003 227.263 224.065 235.154 219.132C244.881 213.041 256.74 206.951 258.908 195.514C260.875 185.185 253.529 175.709 246.693 168.048C246.835 167.707 215.546 145.563 215.558 145.186C209.054 140.131 206.791 130.85 207.265 122.385C207.739 113.92 210.558 105.808 212.229 97.525C217.785 70.0223 210.878 39.438 192.479 18.5613C188.676 14.2373 183.629 13.5796 179.447 10.4858C175.265 7.39208 173.452 2.82453 168.322 1.21676C164.294 -0.00125741 160.029 0.522488 155.894 1.38728C145.95 3.59196 136.653 8.18292 128.764 14.7854C108.812 31.2408 95.0694 44.2004 71.6825 50.0591Z" stroke="#DCA635" stroke-miterlimit="10"/>
</svg>
