<svg width="324" height="517" viewBox="0 0 324 517" fill="none" xmlns="http://www.w3.org/2000/svg">
<path d="M95.5767 58.7069C72.0669 63.5799 42.2531 70.536 53.5695 102.186C57.5984 113.479 62.6346 125.869 58.4872 137.076C53.2022 151.318 36.5297 155.715 24.3127 164.024C2.29599 178.923 -6.14099 212.303 6.20638 236.741C13.2332 250.69 38.8522 265.978 40.3572 281.243C40.843 286.213 37.5132 290.55 34.5982 294.485C12.3564 324.332 7.49799 359.369 26.3034 393.248C39.658 417.381 54.6597 394.137 67.5877 384.647C77.0675 377.716 90.2917 376.668 82.7672 392.225C75.9047 406.541 72.4138 422.315 72.5764 438.274C72.6712 449.238 76.9608 467.585 91.69 465.234C112.534 462.042 108.078 411.412 130.474 410.937C146.198 410.584 136.505 448.495 135.937 478.927C135.546 498.419 138.792 514.816 154.695 516.376C171.948 518.081 186.582 501.903 192.092 486.407C197.519 471.228 197.247 454.562 196.903 438.36C196.595 423.538 196.291 408.712 195.991 393.882C195.813 384.781 195.754 375.23 199.937 367.239C209.191 349.562 232.239 346.931 248.402 339.414C250.866 338.373 253.157 336.943 255.192 335.175C255.969 334.454 256.654 333.636 257.23 332.738C260.903 327.11 256.045 323.699 256.555 318.351C257.23 310.858 260.465 304.792 265.477 299.346C273.562 290.589 282.724 282.956 292.732 276.638C305.138 268.854 320.258 261.032 322.842 246.414C325.212 233.013 315.495 220.733 306.418 210.865C306.489 210.695 265.252 181.847 265.264 181.627C256.697 175.159 253.711 163.135 254.398 152.17C255.085 141.206 258.794 130.742 261.046 120.021C268.535 84.4362 259.446 45.0748 236.019 17.6887C232.654 13.7538 228.518 11.6828 224.596 8.73467C220.674 5.78652 217.96 2.48509 213.28 1.20594C208.397 -0.134129 203.219 0.645544 198.313 1.79069C186.42 4.65079 175.327 10.2864 165.893 18.2613C141.933 38.6425 125.734 52.4573 95.5767 58.7069Z" stroke="#D7C028" stroke-miterlimit="10"/>
</svg>
