<svg width="207" height="320" viewBox="0 0 207 320" fill="none" xmlns="http://www.w3.org/2000/svg">
<path d="M51.8522 43.1471C38.5278 47.2982 21.6765 51.962 28.2318 71.1057C30.6069 77.9915 33.552 85.5245 31.3669 92.3981C28.5999 101.091 19.4914 104.302 12.853 109.662C0.977454 119.27 -3.27399 139.146 4.26696 154.127C8.62527 162.771 23.5053 172.184 24.776 181.548C25.1916 184.539 23.434 187.189 21.914 189.594C10.3947 207.907 8.68465 228.882 20.2633 249.186C28.3743 263.409 37.3997 251.09 45.2019 246.28C50.8784 242.788 58.4787 242.398 54.8092 251.506C51.4383 260.128 50.127 269.456 50.9853 278.707C51.5434 285.215 54.5479 295.665 63.3714 294.579C76.2207 293.065 74.8551 264.948 88.5356 264.362C98.4161 263.947 94.0221 284.555 94.5684 300.586C94.9128 310.878 97.0148 319.375 106.088 319.497C115.873 319.632 124.103 309.73 127.167 300.11C130.136 290.806 129.898 280.661 129.542 270.808C129.281 261.761 129.019 252.702 128.817 243.68C128.699 238.125 128.663 232.313 131.05 227.393C136.323 216.49 149.516 214.097 159.195 209.14C160.662 208.446 162.029 207.546 163.256 206.467C163.731 206.032 164.154 205.54 164.515 205.002C166.76 201.681 164.23 199.605 164.693 196.455C165.425 192.155 167.511 188.221 170.631 185.26C175.732 180.076 181.422 175.542 187.577 171.757C195.142 167.056 204.298 162.331 206.127 153.553C207.742 145.776 202.374 138.597 197.399 132.798C197.589 132.321 174.538 115.705 174.562 115.18C169.812 111.285 168.078 104.277 168.434 97.8678C168.79 91.458 170.809 85.3169 171.997 79.0415C175.951 58.213 170.702 35.0159 156.559 19.364C152.378 14.7124 146.559 15.2252 142.082 12.0386C137.605 8.85209 136.596 3.19933 131.098 1.28252C127.76 0.0616242 124.174 0.488946 120.754 1.09939C112.444 2.7238 104.643 6.40279 98.0242 11.8189C81.3747 25.322 69.7011 37.5798 51.8522 43.1471Z" stroke="#DF8C3B" stroke-miterlimit="10"/>
</svg>
