<svg width="217" height="338" viewBox="0 0 217 338" fill="none" xmlns="http://www.w3.org/2000/svg">
<path d="M55.7263 44.5146C41.5071 48.7418 23.5079 53.5902 30.4872 73.8246C32.9874 81.1339 36.1393 89.0644 33.7813 96.3249C30.7953 105.498 20.9959 108.812 13.8863 114.415C1.10082 124.502 -3.52042 145.553 4.40679 161.365C8.99248 170.477 24.8114 180.418 26.1029 190.285C26.5177 193.465 24.6218 196.254 22.9866 198.813C10.4737 218.073 8.48298 240.378 20.7352 261.855C29.2786 276.961 38.8528 263.658 47.1355 258.432C53.1431 254.631 61.2362 254.18 57.2193 263.865C53.5394 272.987 52.0322 282.882 52.8232 292.724C53.3327 299.631 56.4491 310.766 65.7982 309.609C79.342 307.94 77.7068 277.85 92.163 277.265C102.543 276.851 97.6848 298.998 98.0877 316.248C98.3721 327.358 100.564 336.567 110.245 336.811C120.684 337.091 129.477 326.615 132.759 316.504C135.946 306.685 135.697 295.965 135.401 285.525C135.133 275.966 134.884 266.415 134.655 256.872C134.536 251.001 134.501 244.861 137.025 239.683C142.665 228.184 156.718 225.759 166.956 220.594C168.516 219.87 169.968 218.923 171.269 217.78C171.767 217.318 172.212 216.799 172.596 216.233C174.966 212.7 172.229 210.52 172.703 207.182C173.418 202.629 175.586 198.451 178.865 195.304C184.199 189.805 190.168 184.998 196.639 180.99C204.625 176.02 214.306 171.025 216.202 161.73C217.885 153.447 212.126 145.894 206.794 139.644C206.971 139.194 182.313 121.505 182.337 121.006C177.206 116.888 175.405 109.433 175.784 102.623C176.163 95.8133 178.343 89.2837 179.635 82.6201C183.901 60.4975 178.331 35.8532 163.389 19.1881C159.29 14.6076 153.637 14.8878 149.17 11.7083C144.703 8.52878 143.589 3.11993 138.174 1.26826C134.714 0.0500506 130.981 0.488609 127.438 1.15862C118.803 2.89994 110.705 6.76172 103.835 12.4149C86.7242 26.5217 74.6497 38.923 55.7263 44.5146Z" stroke="#DF923A" stroke-miterlimit="10"/>
</svg>
