<svg width="239" height="374" viewBox="0 0 239 374" fill="none" xmlns="http://www.w3.org/2000/svg">
<path d="M63.8734 47.3687C47.7471 51.7393 27.3576 57.0012 35.2189 79.587C38.0333 87.669 41.5602 96.5324 38.7814 104.602C35.3139 114.809 24.1394 118.361 15.9812 124.514C1.32737 135.587 -4.06392 159.138 4.7949 176.73C9.87743 186.827 27.7019 197.863 29.0438 208.839C29.4713 212.379 27.2744 215.48 25.3744 218.313C10.9224 239.702 8.38118 264.632 21.9663 288.646C31.4663 305.591 42.1539 290.27 51.4046 284.178C58.114 279.746 67.2697 279.172 62.5434 290.05C58.2061 300.228 56.2967 311.324 56.974 322.415C57.4015 330.155 60.7503 342.754 71.2241 341.362C86.2699 339.372 84.073 305.115 100.152 304.554C111.623 304.151 105.792 329.496 106.03 349.469C106.172 362.276 108.583 372.958 119.532 373.459C131.336 374.045 141.346 362.398 145.075 351.154C148.745 340.251 148.472 328.311 148.163 316.689C147.878 306.059 147.613 295.454 147.367 284.873C147.237 278.342 147.189 271.505 150.063 265.743C156.44 252.985 172.329 250.531 183.776 244.866C185.519 244.069 187.142 243.021 188.597 241.753C189.149 241.242 189.643 240.669 190.07 240.044C192.694 236.076 189.536 233.646 190.011 229.898C190.721 224.781 193.094 220.061 196.744 216.506C202.651 210.342 209.281 204.958 216.48 200.476C225.363 194.933 236.157 189.366 238.188 178.989C240.017 169.662 233.438 161.103 227.358 154.157C227.512 153.754 199.475 133.793 199.499 133.402C193.668 128.8 191.626 120.412 192.065 112.758C192.504 105.103 194.998 97.7655 196.483 90.2694C201.399 65.4129 195.164 37.7727 178.444 18.9106C174.478 14.4544 169.122 14.2713 164.8 11.1215C160.477 7.97171 158.993 2.97842 153.708 1.24481C149.956 0.0239542 145.93 0.512295 142.095 1.24481C132.789 3.21346 124.076 7.44121 116.682 13.5754C98.0143 28.9216 85.0823 41.6184 63.8734 47.3687Z" stroke="#DD9C38" stroke-miterlimit="10"/>
</svg>
