<svg width="122" height="176" viewBox="0 0 122 176" fill="none" xmlns="http://www.w3.org/2000/svg">
<path d="M20.0173 31.8023C14.2114 35.1887 6.79408 38.3803 9.87476 48.3569C11.0004 52.0113 12.4341 55.9825 11.6876 59.6979C10.7516 64.3025 7.16139 66.6169 4.57836 69.8328C0.111374 75.5338 -1.06165 85.5835 2.95508 93.5868C5.32484 98.3497 12.3275 103.429 13.4531 108.485C13.6432 109.942 13.3864 111.424 12.7185 112.724C9.02166 122.469 9.60225 133.262 15.9176 143.616C20.1595 150.56 24.7924 146.247 28.9513 144.834C31.8542 143.86 35.3378 144.006 34.461 148.33C33.6869 152.801 33.9714 157.397 35.2904 161.73C36.1909 164.958 38.2407 169.684 42.7196 169.563C49.7103 169.356 50.599 157.613 57.8505 156.979C63.4312 156.492 62.9099 164.446 64.2725 169.952C65.1493 173.546 66.3934 176.25 70.4812 175.312C74.8653 174.326 78.3844 168.978 79.6285 163.728C80.8134 158.745 80.5764 153.373 80.3157 148.123C80.0787 143.251 79.8536 138.488 79.7351 133.713C79.4716 130.775 79.8024 127.814 80.7067 125.015C83.0765 119.083 89.0009 116.878 93.9655 113.784C94.7072 113.353 95.4023 112.843 96.039 112.261C96.2865 112.023 96.5162 111.767 96.7263 111.494C97.9112 109.849 97.0699 108.765 97.5201 107.242C98.2343 105.101 99.5144 103.207 101.217 101.773C104.089 99.2206 107.192 96.9567 110.483 95.012C114.547 92.5757 119.322 90.1394 120.602 85.5713C121.621 81.9169 119.476 78.4695 117.497 75.5947C117.782 74.8882 108.018 67.2382 108.077 66.4708C106.039 64.473 105.305 61.1353 105.423 58.0412C105.706 54.9985 106.145 51.9733 106.738 48.9782C108.101 38.965 105.317 27.9285 98.4443 20.5344C93.6456 15.3938 86.6667 17.7692 81.785 14.4436C76.5834 10.7892 77.1166 3.89448 71.1211 1.37291C68.901 0.561396 66.5236 0.31071 64.1895 0.642016C58.4753 1.35225 53.0482 3.61433 48.4662 7.19566C37.1625 15.6496 29.0579 26.5277 20.0173 31.8023Z" stroke="#E35B3E" stroke-miterlimit="10"/>
</svg>
