<svg width="281" height="445" viewBox="0 0 281 445" fill="none" xmlns="http://www.w3.org/2000/svg">
<path d="M79.5963 52.9501C59.7978 57.5788 34.7268 63.6693 44.3002 90.7112C47.7126 100.456 52.0016 111.005 48.5656 120.64C44.1936 132.821 30.2719 136.804 20.1297 144.04C1.78853 156.988 -5.09533 185.455 5.49705 206.443C11.5515 218.453 33.2576 231.621 34.6676 244.715C35.1297 248.967 32.3572 252.682 29.9283 256.056C11.5871 281.636 7.86672 311.601 24.0041 340.519C35.4259 361.032 48.2576 341.737 59.3239 333.99C67.3926 328.314 78.5892 327.497 72.4755 340.714C66.9076 352.969 64.244 366.407 64.703 379.925C64.9637 389.292 68.7788 404.701 81.3617 402.861C99.2882 400.23 95.9707 357.792 115.212 357.341C128.79 356.951 121.018 388.573 120.876 413.739C120.745 429.854 123.577 443.412 136.99 444.435C151.456 445.568 163.79 431.682 168.423 418.307C172.961 405.273 172.7 390.985 172.369 377.086C172.076 364.369 171.796 351.656 171.527 338.948C171.373 331.14 171.326 322.954 174.845 316.084C182.653 300.882 202.096 298.348 215.887 291.722C217.991 290.812 219.949 289.58 221.693 288.068C222.348 287.449 222.936 286.758 223.447 286.009C226.586 281.21 222.605 278.298 223.079 273.755C223.743 267.396 226.575 262.232 230.899 257.603C237.86 250.167 245.716 243.675 254.276 238.284C264.88 231.621 277.818 224.958 280.129 212.485C282.226 201.108 274.098 190.717 266.515 182.324C266.622 182.032 232.025 157.658 232.037 157.341C224.845 151.811 222.345 141.628 222.902 132.321C223.458 123.015 226.563 114.135 228.435 105.036C234.631 74.8393 227.025 41.305 206.918 18.2829C203.328 14.0927 198.589 12.972 194.442 9.92678C190.295 6.88153 188.233 2.72781 183.257 1.22955C178.944 -0.0738156 174.347 0.583958 169.987 1.53408C159.395 3.9478 149.499 8.87418 141.089 15.9198C119.809 33.7163 105.224 46.9692 79.5963 52.9501Z" stroke="#DBAF32" stroke-miterlimit="10"/>
</svg>
