<svg width="32" height="32" viewBox="0 0 32 32" fill="none" xmlns="http://www.w3.org/2000/svg">
<path d="M13 32.0001C12.6839 32.0017 12.375 31.9068 12.1143 31.7281C11.8536 31.5494 11.6537 31.2954 11.5412 31.0001L9.0512 24.525C9.00077 24.3945 8.92362 24.276 8.82471 24.1771C8.72579 24.0782 8.6073 24.0011 8.47682 23.9506L1.9999 21.4587C1.70486 21.3455 1.45109 21.1455 1.27209 20.885C1.09309 20.6246 0.99726 20.316 0.99726 20C0.99726 19.684 1.09309 19.3754 1.27209 19.1149C1.45109 18.8545 1.70486 18.6545 1.9999 18.5412L8.47495 16.0512C8.60542 16.0008 8.72392 15.9236 8.82283 15.8247C8.92175 15.7258 8.99889 15.6073 9.04933 15.4768L11.5412 8.9999C11.6545 8.70486 11.8545 8.45109 12.1149 8.27209C12.3754 8.09308 12.684 7.99726 13 7.99726C13.316 7.99726 13.6246 8.09308 13.885 8.27209C14.1455 8.45109 14.3455 8.70486 14.4587 8.9999L16.9488 15.4749C16.9992 15.6054 17.0763 15.7239 17.1753 15.8228C17.2742 15.9217 17.3927 15.9989 17.5231 16.0493L23.9607 18.5262C24.2677 18.64 24.5323 18.8457 24.7182 19.1152C24.9042 19.3847 25.0026 19.705 25.0001 20.0325C24.9953 20.343 24.8974 20.6449 24.7192 20.8992C24.5409 21.1535 24.2904 21.3484 24.0001 21.4587L17.525 23.9488C17.3945 23.9992 17.276 24.0763 17.1771 24.1752C17.0782 24.2742 17.0011 24.3927 16.9506 24.5231L14.4587 31.0001C14.3463 31.2954 14.1463 31.5494 13.8857 31.7281C13.625 31.9068 13.316 32.0017 13 32.0001ZM5.49992 10.9999C5.31464 10.9999 5.13371 10.9438 4.98098 10.8389C4.82824 10.734 4.71085 10.5853 4.64429 10.4124L3.59053 7.67239C3.5677 7.61246 3.53245 7.55804 3.4871 7.51269C3.44175 7.46735 3.38733 7.4321 3.32741 7.40926L0.587386 6.3555C0.414497 6.28892 0.265832 6.17153 0.160978 6.01879C0.0561241 5.86605 0 5.68513 0 5.49987C0 5.3146 0.0561241 5.13368 0.160978 4.98094C0.265832 4.82821 0.414497 4.71082 0.587386 4.64424L3.32741 3.59048C3.38727 3.56754 3.44164 3.53225 3.48697 3.48692C3.53231 3.44158 3.56759 3.38722 3.59053 3.32735L4.63492 0.611707C4.69382 0.451832 4.79517 0.31103 4.92808 0.204434C5.061 0.0978385 5.22045 0.0294787 5.3893 0.0067022C5.59202 -0.0179416 5.79716 0.0257953 5.9722 0.130978C6.14724 0.23616 6.28216 0.396767 6.35556 0.587332L7.40931 3.32735C7.43226 3.38722 7.46754 3.44158 7.51287 3.48692C7.55821 3.53225 7.61258 3.56754 7.67244 3.59048L10.4125 4.64424C10.5854 4.71082 10.734 4.82821 10.8389 4.98094C10.9437 5.13368 10.9998 5.3146 10.9998 5.49987C10.9998 5.68513 10.9437 5.86605 10.8389 6.01879C10.734 6.17153 10.5854 6.28892 10.4125 6.3555L7.67244 7.40926C7.61252 7.4321 7.55809 7.46735 7.51275 7.51269C7.4674 7.55804 7.43215 7.61246 7.40931 7.67239L6.35556 10.4124C6.289 10.5853 6.17161 10.734 6.01887 10.8389C5.86613 10.9438 5.6852 10.9999 5.49992 10.9999ZM25.0001 15.9999C24.798 15.9999 24.6006 15.9386 24.434 15.8241C24.2674 15.7096 24.1395 15.5474 24.0669 15.3587L22.6394 11.648C22.6143 11.5827 22.5757 11.5233 22.5262 11.4737C22.4767 11.4242 22.4173 11.3857 22.3519 11.3605L18.6413 9.93303C18.4528 9.86039 18.2907 9.73235 18.1763 9.56578C18.062 9.39921 18.0008 9.20192 18.0008 8.9999C18.0008 8.79787 18.062 8.60058 18.1763 8.43401C18.2907 8.26744 18.4528 8.1394 18.6413 8.06676L22.3519 6.63925C22.4173 6.61414 22.4767 6.57557 22.5262 6.52604C22.5757 6.47652 22.6143 6.41714 22.6394 6.35175L24.0563 2.66735C24.121 2.49312 24.2317 2.33968 24.3766 2.22335C24.5216 2.10702 24.6953 2.03216 24.8794 2.00672C25.1007 1.97994 25.3245 2.02781 25.5154 2.14274C25.7063 2.25767 25.8533 2.43307 25.9332 2.6411L27.3607 6.35175C27.3858 6.41714 27.4244 6.47652 27.4739 6.52604C27.5235 6.57557 27.5828 6.61414 27.6482 6.63925L31.3589 8.06676C31.5474 8.1394 31.7095 8.26744 31.8238 8.43401C31.9381 8.60058 31.9993 8.79787 31.9993 8.9999C31.9993 9.20192 31.9381 9.39921 31.8238 9.56578C31.7095 9.73235 31.5474 9.86039 31.3589 9.93303L27.6482 11.3605C27.5828 11.3857 27.5235 11.4242 27.4739 11.4737C27.4244 11.5233 27.3858 11.5827 27.3607 11.648L25.9332 15.3587C25.8607 15.5474 25.7327 15.7096 25.5661 15.8241C25.3996 15.9386 25.2022 15.9999 25.0001 15.9999Z" fill="#FCFCFD"/>
</svg>
