<svg width="27" height="24" viewBox="0 0 27 24" fill="none" xmlns="http://www.w3.org/2000/svg">
<g clip-path="url(#clip0_8_8791)">
<path d="M25.661 9.9099L21.3657 5.9999C21.2625 5.90617 21.1397 5.83178 21.0045 5.78101C20.8692 5.73024 20.7242 5.7041 20.5776 5.7041C20.4311 5.7041 20.2861 5.73024 20.1508 5.78101C20.0156 5.83178 19.8928 5.90617 19.7896 5.9999C19.5829 6.18726 19.4669 6.44071 19.4669 6.7049C19.4669 6.96909 19.5829 7.22254 19.7896 7.4099L23.7409 10.9999H1.10991C0.81554 10.9999 0.533231 11.1053 0.325084 11.2928C0.116936 11.4803 0 11.7347 0 11.9999H0C0 12.2651 0.116936 12.5195 0.325084 12.707C0.533231 12.8945 0.81554 12.9999 1.10991 12.9999H23.8075L19.7896 16.6099C19.6856 16.7029 19.603 16.8135 19.5467 16.9353C19.4903 17.0572 19.4613 17.1879 19.4613 17.3199C19.4613 17.4519 19.4903 17.5826 19.5467 17.7045C19.603 17.8263 19.6856 17.9369 19.7896 18.0299C19.8928 18.1236 20.0156 18.198 20.1508 18.2488C20.2861 18.2996 20.4311 18.3257 20.5776 18.3257C20.7242 18.3257 20.8692 18.2996 21.0045 18.2488C21.1397 18.198 21.2625 18.1236 21.3657 18.0299L25.661 14.1499C26.2846 13.5874 26.6348 12.8249 26.6348 12.0299C26.6348 11.2349 26.2846 10.4724 25.661 9.9099Z" fill="white"/>
</g>
<defs>
<clipPath id="clip0_8_8791">
<rect width="26.6377" height="24" fill="white"/>
</clipPath>
</defs>
</svg>
