<svg width="303" height="481" viewBox="0 0 303 481" fill="none" xmlns="http://www.w3.org/2000/svg">
<path d="M87.5787 55.8253C65.9212 60.5756 38.5058 67.0921 48.9317 96.4589C52.6519 106.946 57.3198 118.444 53.5286 128.871C48.6947 142.086 33.3876 146.264 22.2152 154.035C2.0742 167.958 -5.62678 198.822 5.84175 221.588C12.3817 234.56 36.0177 248.811 37.4987 263.001C37.9608 267.617 34.9278 271.649 32.262 275.291C11.9788 303.025 7.68999 335.51 25.1534 366.899C37.5461 389.213 51.4552 367.971 63.4569 359.335C72.2005 353.038 84.4391 352.1 77.6149 366.485C71.3806 379.766 68.2834 394.372 68.5751 409.116C68.7647 419.299 72.8047 436.132 86.4651 434.061C105.86 431.102 101.974 384.646 122.814 384.122C137.469 383.744 128.738 418.507 128.37 446.303C128.121 464.086 131.154 479.08 145.81 480.408C161.615 481.82 175.133 466.79 180.168 452.393C185.156 438.288 184.907 422.807 184.552 407.764C184.244 393.96 183.952 380.188 183.675 366.448C183.509 358.007 183.45 349.128 187.301 341.71C195.831 325.267 217.086 322.684 232.049 315.632C234.33 314.655 236.452 313.324 238.34 311.685C239.059 311.018 239.699 310.265 240.248 309.444C243.648 304.231 239.241 301.076 239.715 296.131C240.39 289.213 243.423 283.585 248.091 278.555C255.627 270.445 264.158 263.377 273.469 257.532C284.937 250.309 298.965 243.086 301.417 229.517C303.656 217.117 294.735 205.802 286.406 196.63C286.489 196.399 248.577 169.833 248.588 169.541C240.71 163.548 237.926 152.488 238.589 142.306C239.252 132.123 242.617 122.5 244.679 112.586C251.598 79.6744 243.304 43.2065 221.469 17.9932C217.915 13.9249 213.519 12.3293 209.503 9.33296C205.487 6.3366 203.082 2.60942 198.248 1.22086C193.651 -0.106796 188.77 0.611838 184.125 1.67153C172.881 4.31678 162.388 9.61242 153.475 17.1406C130.858 36.1662 115.456 49.6621 87.5787 55.8253Z" stroke="#D9B82D" stroke-miterlimit="10"/>
</svg>
