<svg width="186" height="284" viewBox="0 0 186 284" fill="none" xmlns="http://www.w3.org/2000/svg">
<path d="M43.8472 40.3225C32.3939 44.3247 17.914 48.5833 23.5991 65.4343C25.6405 71.5353 28.2398 78.1488 26.4001 84.2376C24.0976 91.9005 16.3592 94.89 10.769 99.7098C0.739872 108.349 -2.73768 125.749 3.9207 138.988C7.78992 146.663 20.6913 154.985 21.9256 163.27C22.3173 165.906 20.8574 168.236 19.5519 170.36C9.98563 186.491 8.86998 204.965 19.1127 222.828C26.234 235.213 34.1861 224.915 41.0818 220.949C46.0667 218.082 52.6301 217.826 49.6629 225.745C46.9353 233.321 46.0194 241.461 46.9925 249.478C47.6334 255.164 50.3988 264.12 58.1372 263.376C69.5194 262.156 68.7242 238.179 80.7947 237.581C89.6013 237.141 86.1713 254.59 86.919 267.976C87.4056 276.603 89.2928 283.643 97.1143 283.497C105.553 283.35 112.544 274.577 115.202 266.06C117.73 257.836 117.493 248.892 117.208 240.167C116.947 232.175 116.698 224.183 116.52 216.227C116.401 211.346 116.377 206.185 118.431 201.841C122.976 192.177 134.358 189.822 142.845 185.344C144.134 184.7 145.332 183.879 146.405 182.903C146.817 182.515 147.191 182.086 147.521 181.622C149.491 178.718 147.39 176.888 147.853 174.154C148.567 170.392 150.444 166.968 153.206 164.393C157.733 159.868 162.76 155.903 168.184 152.581C174.878 148.445 182.937 144.272 184.623 136.572C186.094 129.824 181.525 123.577 177.3 118.489C177.525 117.952 157.799 103.578 157.823 102.992C153.716 99.5756 152.28 93.4868 152.565 87.9104C152.85 82.3341 154.583 76.9286 155.568 71.5231C158.879 53.4031 154.274 33.2331 141.943 19.6644C137.61 14.8934 131.498 15.8818 126.917 12.6239C122.169 9.21949 121.647 3.33812 116.009 1.28817C112.921 0.359737 109.655 0.25058 106.514 0.97091C98.8355 2.38079 91.6195 5.73575 85.5185 10.7325C70.2434 22.898 59.4665 34.8682 43.8472 40.3225Z" stroke="#E0813C" stroke-miterlimit="10"/>
</svg>
