<svg width="250" height="391" viewBox="0 0 250 391" fill="none" xmlns="http://www.w3.org/2000/svg">
<path d="M67.6833 48.6422C50.6547 53.0768 29.1348 58.5347 37.4062 82.2061C40.3688 90.7341 44.0779 99.9687 41.1864 108.424C37.4892 119.108 25.6509 122.763 17.0003 129.135C1.45291 140.672 -4.32996 165.391 4.9724 183.811C10.2931 194.386 29.0637 205.935 30.4146 217.412C30.8413 221.128 28.5186 224.38 26.4923 227.341C11.0871 249.782 8.20748 275.902 22.4276 301.096C32.4173 318.907 43.6157 302.631 53.238 296.125C60.277 291.386 69.9349 290.753 64.863 302.217C60.2193 312.893 58.1151 324.553 58.7246 336.231C59.1157 344.37 62.5759 357.649 73.5373 356.15C89.2861 353.994 86.8095 317.762 103.649 317.165C115.641 316.775 109.301 343.639 109.467 364.886C109.526 378.494 112.062 389.885 123.604 390.47C136.059 391.188 146.641 378.993 150.587 367.237C154.462 355.821 154.142 343.31 153.881 331.139C153.621 320.077 153.372 309.003 153.135 297.916C152.992 291.082 152.957 283.918 155.991 277.888C162.71 264.486 179.466 262.05 191.482 256.178C193.313 255.357 195.018 254.265 196.542 252.937C197.119 252.4 197.632 251.795 198.07 251.134C200.831 246.98 197.466 244.421 197.94 240.486C198.667 235.136 201.131 230.194 204.932 226.464C211.101 219.985 218.041 214.332 225.586 209.639C234.877 203.828 246.194 197.992 248.291 187.101C250.187 177.281 243.243 168.266 236.773 160.981C236.927 160.603 207.29 139.575 207.302 139.161C201.151 134.349 199.007 125.516 199.469 117.463C199.931 109.41 202.573 101.699 204.15 93.8163C209.387 67.6475 202.822 38.5304 185.272 18.721C181.397 14.3352 176.195 13.8479 171.929 10.79C167.663 7.73208 166.004 2.89547 160.837 1.22642C156.95 0.00812725 152.779 0.519811 148.821 1.32388C139.216 3.37462 130.221 7.73767 122.573 14.055C103.281 30.0268 89.9497 42.8431 67.6833 48.6422Z" stroke="#DDA137" stroke-miterlimit="10"/>
</svg>
