<svg width="292" height="463" viewBox="0 0 292 463" fill="none" xmlns="http://www.w3.org/2000/svg">
<path d="M83.6281 54.319C62.8895 59.0096 36.6402 65.2841 46.6422 93.5497C50.1974 103.638 54.6888 114.7 51.0743 124.727C46.4644 137.447 31.8644 141.516 21.1751 149.021C1.91772 162.423 -5.3586 192.114 5.67438 214.007C11.9671 226.508 34.6611 240.214 36.0951 253.847C36.5572 258.282 33.6538 262.156 31.1178 265.665C11.8012 292.335 7.79565 323.561 24.6236 353.715C36.5454 375.146 49.913 354.933 61.4555 346.673C69.8577 340.679 81.6017 339.814 75.1075 353.605C69.1897 366.362 66.2903 380.377 66.6461 394.505C66.8713 404.252 70.8057 420.407 83.9244 418.445C102.589 415.655 98.9866 371.222 119.026 370.735C133.152 370.345 124.892 403.545 124.643 430.032C124.454 446.979 127.393 461.258 141.424 462.428C156.557 463.646 169.498 449.233 174.357 435.32C179.097 421.747 178.848 406.859 178.517 392.385C178.224 379.13 177.936 365.886 177.651 352.655C177.497 344.516 177.438 335.988 181.136 328.836C189.301 312.998 209.66 310.451 224.035 303.641C226.229 302.691 228.271 301.405 230.091 299.828C230.776 299.186 231.388 298.467 231.916 297.683C235.186 292.676 230.991 289.63 231.465 284.891C232.141 278.251 235.021 272.853 239.559 268.017C246.838 260.26 255.054 253.496 264.007 247.889C275.04 240.957 288.526 234.013 290.908 221.001C293.077 209.11 284.545 198.254 276.593 189.482C276.688 189.226 240.424 163.726 240.436 163.446C232.899 157.683 230.268 147.035 230.861 137.313C231.453 127.59 234.712 118.306 236.68 108.803C243.198 77.2604 235.234 42.2452 214.282 18.1586C210.727 14.0284 206.105 12.6638 202.04 9.63015C197.975 6.59648 195.712 2.66122 190.817 1.22358C186.362 -0.092233 181.61 0.60222 177.106 1.60126C166.19 4.12264 155.996 9.22895 147.337 16.5138C125.378 34.8742 110.375 48.276 83.6281 54.319Z" stroke="#DAB430" stroke-miterlimit="10"/>
</svg>
