<svg width="335" height="535" viewBox="0 0 335 535" fill="none" xmlns="http://www.w3.org/2000/svg">
<path d="M99.5523 59.9291C75.097 64.877 44.1101 72.0309 55.8458 104.851C60.0303 116.538 65.258 129.383 60.9312 140.998C55.419 155.744 38.0526 160.253 25.3685 168.833C2.41875 184.225 -6.41266 218.8 6.40177 244.149C13.6803 258.591 40.2812 274.459 41.8103 290.229C42.3082 295.396 38.8231 299.881 35.7766 303.951C12.566 334.87 7.40938 371.2 26.8622 406.323C40.7079 431.367 56.237 407.103 69.6559 397.207C79.412 389.895 93.2222 388.847 85.351 405.007C78.1712 419.849 74.4765 436.216 74.5636 452.792C74.6466 464.224 79.0326 483.26 94.3009 480.823C115.911 477.422 111.169 424.762 134.427 424.299C150.68 423.958 140.509 463.456 139.833 495.203C139.383 515.507 142.737 532.679 159.262 534.36C177.043 536.201 192.383 519.456 198.144 503.369C203.81 487.647 203.526 470.378 203.182 453.597C202.858 438.233 202.55 422.873 202.257 407.517C202.068 398.097 202.008 388.188 206.359 379.913C215.985 361.633 239.93 358.952 256.68 351.213C259.239 350.136 261.618 348.656 263.733 346.825C264.529 346.103 265.238 345.284 265.843 344.388C269.637 338.538 264.658 335.004 265.085 329.459C265.76 321.683 269.103 315.383 274.284 309.728C282.654 300.639 292.152 292.722 302.532 286.182C315.311 278.115 330.982 270.059 333.638 254.91C336.092 240.968 325.968 228.245 316.508 218.008C316.568 217.862 273.655 187.881 273.667 187.723C264.741 181.02 261.647 168.54 262.358 157.158C263.07 145.775 266.946 134.916 269.293 123.777C277.105 86.8382 267.622 46.0114 243.38 17.5546C240.084 13.6791 236.101 11.3757 232.237 8.43861C228.372 5.50152 225.48 2.43037 220.88 1.19948C215.842 -0.141105 210.52 0.651057 205.47 1.85758C193.243 4.83967 181.849 10.678 172.171 18.9195C147.503 39.6498 130.812 53.6162 99.5523 59.9291Z" stroke="#D6C425" stroke-miterlimit="10"/>
</svg>
