<svg width="196" height="302" viewBox="0 0 196 302" fill="none" xmlns="http://www.w3.org/2000/svg">
<path d="M47.7939 41.7373C35.4241 45.8097 19.769 50.2723 25.8887 68.2325C28.0828 74.7069 30.858 81.791 28.8537 88.2654C26.3275 96.4347 17.8951 99.5317 11.7992 104.616C0.852484 113.724 -3.00198 132.355 4.09023 146.438C8.20562 154.595 22.0698 163.508 23.327 172.275C23.7302 175.079 22.141 177.566 20.7297 179.834C10.2099 197.014 8.78676 216.73 19.6979 235.775C27.3119 249.065 35.7799 237.775 43.133 233.337C48.4581 230.166 55.5384 229.837 52.2177 238.348C49.173 246.437 48.0626 255.16 48.9799 263.782C49.5729 269.879 52.4549 279.633 60.7212 278.67C72.8302 277.329 71.7509 251.297 84.6189 250.699C93.9408 250.273 90.0389 269.281 90.6912 283.974C91.1063 293.423 93.0631 301.141 101.531 301.178C110.628 301.178 118.265 291.826 121.1 282.779C123.84 274.024 123.602 264.49 123.318 255.199C123.049 246.68 122.812 238.173 122.606 229.679C122.488 224.448 122.464 218.998 124.682 214.364C129.58 204.098 141.855 201.72 150.928 197.002C152.306 196.342 153.591 195.493 154.746 194.478C155.191 194.066 155.589 193.604 155.932 193.1C158.043 189.991 155.731 188.052 156.193 185.114C156.915 181.092 158.888 177.421 161.815 174.652C166.619 169.801 171.965 165.552 177.743 161.996C184.859 157.594 193.457 153.144 195.212 144.926C196.754 137.671 191.797 130.965 187.195 125.503C187.397 125.003 166.037 109.53 166.061 108.969C161.613 105.311 160.048 98.7757 160.38 92.789C160.712 86.8023 162.562 81.0594 163.665 75.1946C167.282 55.7469 162.36 34.0801 149.16 19.4852C144.903 14.7787 138.949 15.5347 134.43 12.3036C129.686 8.93833 129.046 3.24424 123.484 1.26898C120.293 0.122851 116.866 0.45207 113.581 1.01294C105.59 2.53195 98.0845 6.04473 91.723 11.2428C75.7121 24.1063 64.5164 36.2261 47.7939 41.7373Z" stroke="#E0863C" stroke-miterlimit="10"/>
</svg>
