<svg width="313" height="499" viewBox="0 0 313 499" fill="none" xmlns="http://www.w3.org/2000/svg">
<path d="M91.5501 57.0847C68.9671 61.9571 40.3533 68.6323 51.2657 99.1458C55.1401 110.024 59.9861 121.973 56.005 132.79C50.9458 146.518 34.9742 150.806 23.268 158.845C2.16608 173.255 -5.87895 205.352 6.02864 228.971C12.8059 242.371 37.4386 257.219 38.9315 271.922C39.4055 276.709 36.2183 280.899 33.4339 284.675C12.1424 313.459 7.55708 347.213 25.7206 379.882C38.5879 403.112 53.0429 380.869 65.5074 371.806C74.5951 365.192 87.3439 364.193 80.1757 379.176C73.6296 392.966 70.3337 408.147 70.5548 423.491C70.7088 434.1 74.8676 451.641 89.0619 449.448C109.204 446.33 105.022 397.837 126.657 397.35C141.846 396.985 132.64 433.321 132.178 462.433C131.846 481.046 134.998 496.76 150.271 498.185C166.752 499.744 180.851 484.14 186.159 469.145C191.372 454.528 191.1 438.437 190.768 422.857C190.444 408.557 190.144 394.26 189.868 379.968C189.702 371.197 189.643 361.989 193.659 354.278C202.545 337.224 224.69 334.606 240.259 327.333C242.629 326.32 244.835 324.94 246.799 323.241C247.547 322.553 248.208 321.771 248.766 320.914C252.32 315.493 247.688 312.205 248.173 307.064C248.837 299.853 251.977 294.018 256.811 288.793C264.631 280.364 273.485 273.018 283.15 266.94C295.057 259.436 309.631 251.933 312.143 237.864C314.453 224.952 305.129 213.16 296.42 203.671C296.503 203.464 256.929 175.74 256.941 175.521C248.718 169.284 245.851 157.725 246.503 147.176C247.155 136.627 250.721 126.553 252.877 116.248C259.986 82.0193 251.337 44.0997 228.73 17.8373C225.294 13.8419 221.005 12.0026 217.036 9.03042C213.067 6.05825 210.508 2.53792 205.756 1.21019C201.005 -0.117546 195.981 0.625498 191.207 1.73397C179.623 4.42598 168.806 9.84682 159.607 17.5693C136.361 37.2174 120.507 50.8845 91.5501 57.0847Z" stroke="#D8BC2B" stroke-miterlimit="10"/>
</svg>
