<svg width="90" height="124" viewBox="0 0 90 124" fill="none" xmlns="http://www.w3.org/2000/svg">
<path d="M8.26081 27.8097C5.21622 30.6953 1.33912 33.593 3.13495 40.1589C3.80096 42.6043 4.66914 45.2697 4.46696 47.8007C4.21721 50.9063 2.68302 52.8871 1.68401 55.3202C0.760107 57.9272 0.370857 60.7026 0.540736 63.4717C0.710614 66.2408 1.43595 68.9439 2.67113 71.4109C4.33614 74.7366 8.36784 78.209 9.462 81.6693C9.69604 82.593 9.71641 83.5603 9.52146 84.4937C8.74191 91.6566 10.5538 98.8639 14.6116 104.741C17.4184 109.009 20.4154 107.896 23.1746 107.541C25.018 107.309 27.0755 107.92 27.1825 110.402C27.4319 113.316 28.3094 116.135 29.7514 118.656C30.8098 120.673 32.4986 123.302 35.3649 123.485C40.1934 123.803 41.9179 118.118 46.7821 117.47C50.79 116.944 51.6939 120.147 53.3827 121.786C54.4531 122.837 55.3926 123.424 57.6285 122.079C59.8643 120.734 61.7672 117.017 62.3262 113.361C62.7132 109.868 62.7132 106.34 62.3262 102.846C62.1002 99.5939 61.8861 96.3415 61.791 93.1381C61.6343 91.162 61.8073 89.173 62.3024 87.2569C63.575 83.1731 66.8693 81.0334 70.0328 78.6247C70.4986 78.2823 70.9434 77.9107 71.3648 77.5121C71.5315 77.3529 71.6866 77.1813 71.8287 76.9986C72.6255 75.996 72.4114 75.2746 72.8752 74.3453C73.5782 73.028 74.5572 71.8879 75.7414 71.0074C77.7953 69.4328 79.9531 68.007 82.1993 66.7402C84.9585 65.1385 88.1458 63.4878 89.1924 60.5534C89.9773 58.4503 89.0378 56.3718 88.1934 54.5866C88.5145 53.7919 83.7097 49.4758 83.7573 48.6077C82.7743 47.0971 82.2944 45.2995 82.3896 43.4846C82.3896 41.6383 82.7464 39.8165 82.8653 38.0436C83.1003 34.9819 82.7142 31.9034 81.7316 29.0031C80.7489 26.1029 79.191 23.444 77.1567 21.195C72.0665 15.8885 64.6572 18.9452 59.6027 15.4728C54.1676 11.7436 55.1904 4.3096 48.9585 1.47296C47.1576 0.719633 45.2136 0.397669 43.2737 0.531481C38.5401 0.908716 34.0059 2.65044 30.1914 5.55674C20.8555 12.2326 14.0408 22.3443 8.26081 27.8097Z" stroke="#E5433D" stroke-miterlimit="10"/>
</svg>
