<svg width="101" height="141" viewBox="0 0 101 141" fill="none" xmlns="http://www.w3.org/2000/svg">
<path d="M12.143 29.2486C8.18579 32.3273 3.11151 35.3572 5.33373 43.0174C6.1537 45.8763 7.21133 48.9672 6.81917 51.8993C6.34383 55.5034 4.12161 57.5926 2.62429 60.2926C-0.0138594 65.0206 -0.42977 72.6686 2.73125 78.9483C4.6445 82.7601 9.67123 86.7673 10.7645 90.7623C10.9826 91.8608 10.9129 92.9992 10.5625 94.061C9.64761 98.1297 9.56821 102.35 10.3294 106.452C11.0906 110.554 12.6756 114.448 14.9832 117.885C18.2749 123.04 21.8043 120.695 25.0366 120.157C27.247 119.79 29.7901 120.157 29.5405 123.236C29.4423 126.672 30.1216 130.085 31.5251 133.205C32.5233 135.648 34.3415 138.959 37.752 139.045C43.3016 139.179 44.7514 131.47 50.4199 130.835C54.9475 130.322 55.3991 135.123 56.9558 138.043C57.9778 139.949 59.0117 141.232 61.8637 140.034C64.9178 138.752 67.2589 134.537 68.0551 130.346C68.6368 126.301 68.7246 122.197 68.3165 118.129C68.0907 114.342 67.8649 110.566 67.758 106.84C67.5666 104.545 67.7923 102.233 68.4234 100.023C70.0753 95.3071 74.2583 93.1447 78.0016 90.5058C78.5644 90.1446 79.097 89.7359 79.594 89.284C79.7844 89.0964 79.963 88.8964 80.1287 88.6854C81.0556 87.4637 80.6278 86.6207 81.0913 85.4967C81.7997 83.8984 82.8815 82.5051 84.2404 81.4406C86.567 79.5371 89.0388 77.8293 91.632 76.3338C94.8405 74.4523 98.5126 72.522 99.6772 69.0034C100.545 66.389 99.2018 63.8478 97.9778 61.6731C98.2868 60.9156 91.8221 55.4912 91.8697 54.6482C90.5512 52.8664 89.9129 50.65 90.0753 48.4174C90.0753 46.1572 90.61 43.9826 90.8239 41.7591C91.2395 38.0143 90.8666 34.2214 89.7307 30.6378C88.5948 27.0542 86.7223 23.7638 84.2404 20.9898C79.2493 15.7364 71.9766 18.5463 66.9855 15.1255C61.6142 11.4603 62.4817 4.12999 56.2903 1.42999C54.3471 0.658535 52.2561 0.361604 50.1822 0.562574C45.1458 1.09363 40.3484 3.03775 36.3141 6.18248C26.2606 13.4639 19.0355 23.8852 12.143 29.2486Z" stroke="#E44C3D" stroke-miterlimit="10"/>
</svg>
