<svg width="164" height="248" viewBox="0 0 164 248" fill="none" xmlns="http://www.w3.org/2000/svg">
<path d="M35.8473 37.4799C26.2779 41.2957 14.1471 45.1724 18.9733 59.7163C20.7046 64.9829 22.9221 70.6883 21.4517 76.028C19.6018 82.6721 13.2459 85.4394 8.68051 89.7185C0.510306 97.3744 -2.19334 112.321 3.58154 123.853C6.96109 130.558 17.8824 137.8 19.08 145.005C19.4595 147.272 18.2855 149.296 17.2776 151.1C9.67659 165.096 9.11927 180.993 18.0602 196.317C24.2264 206.887 31.1041 198.584 37.0332 195.476C41.3258 193.245 46.8516 193.111 44.5867 199.84C42.5125 206.377 42 213.331 43.0926 220.114C43.816 224.99 46.3417 232.561 52.9941 231.976C62.9074 231.122 62.6703 211.251 73.1528 210.605C80.8724 210.142 78.4178 224.429 79.3783 235.17C79.9949 242.119 81.6551 247.702 88.2363 247.3C95.3511 246.873 101.185 239.242 103.332 231.817C105.407 224.685 105.17 216.932 104.897 209.374C104.648 202.437 104.411 195.5 104.245 188.649C104.15 184.382 104.126 179.957 105.846 176.165C109.664 167.753 119.233 165.449 126.526 161.438C127.631 160.869 128.662 160.16 129.597 159.329C129.955 158.992 130.281 158.621 130.57 158.22C132.289 155.782 130.57 154.16 131.056 151.832C131.773 148.609 133.452 145.698 135.858 143.505C139.825 139.639 144.201 136.241 148.902 133.375C154.713 129.815 161.673 126.206 163.227 119.562C164.555 113.857 160.784 108.59 157.298 104.189C157.535 103.604 141.147 91.4862 141.171 90.7791C137.767 87.8411 136.558 82.6721 136.783 77.9298C137.009 73.1874 138.431 68.628 139.226 63.9832C141.882 48.5859 137.898 31.4453 127.368 19.9614C122.874 15.0849 116.47 16.5113 111.798 13.2197C106.865 9.74527 106.735 3.46689 100.96 1.29689C98.1623 0.419062 95.1972 0.264138 92.3273 0.845825C85.3176 2.02366 78.7104 5.00075 73.1172 9.50145C59.1484 20.4978 49.247 32.1158 35.8473 37.4799Z" stroke="#E1753D" stroke-miterlimit="10"/>
</svg>
