<svg width="27" height="24" viewBox="0 0 27 24" fill="none" xmlns="http://www.w3.org/2000/svg">
<g clip-path="url(#clip0_8_8911)">
<path d="M25.661 9.91002L21.3657 6.00002C21.2625 5.90629 21.1397 5.8319 21.0045 5.78113C20.8692 5.73036 20.7242 5.70422 20.5776 5.70422C20.4311 5.70422 20.2861 5.73036 20.1508 5.78113C20.0156 5.8319 19.8928 5.90629 19.7896 6.00002C19.5829 6.18738 19.4669 6.44084 19.4669 6.70502C19.4669 6.96921 19.5829 7.22266 19.7896 7.41002L23.7409 11H1.10991C0.81554 11 0.533231 11.1054 0.325084 11.2929C0.116936 11.4805 0 11.7348 0 12H0C0 12.2652 0.116936 12.5196 0.325084 12.7071C0.533231 12.8947 0.81554 13 1.10991 13H23.8075L19.7896 16.61C19.6856 16.703 19.603 16.8136 19.5467 16.9354C19.4903 17.0573 19.4613 17.188 19.4613 17.32C19.4613 17.452 19.4903 17.5827 19.5467 17.7046C19.603 17.8265 19.6856 17.9371 19.7896 18.03C19.8928 18.1238 20.0156 18.1981 20.1508 18.2489C20.2861 18.2997 20.4311 18.3258 20.5776 18.3258C20.7242 18.3258 20.8692 18.2997 21.0045 18.2489C21.1397 18.1981 21.2625 18.1238 21.3657 18.03L25.661 14.15C26.2846 13.5875 26.6348 12.825 26.6348 12.03C26.6348 11.235 26.2846 10.4725 25.661 9.91002Z" fill="#FAFAFA"/>
</g>
<defs>
<clipPath id="clip0_8_8911">
<rect width="26.6377" height="24" fill="white"/>
</clipPath>
</defs>
</svg>
