<svg width="1438" height="630" viewBox="0 0 1438 630" fill="none" xmlns="http://www.w3.org/2000/svg">
<g clip-path="url(#clip0_8_8530)">
<path d="M98.069 213.053C45.202 224.964 18.8198 264.466 18.8198 332.196C18.8198 397.982 45.2533 491.997 98.1203 568.238" stroke="#E73A1E" stroke-width="0.864115" stroke-miterlimit="10"/>
<path d="M160.261 243.558C86.1271 249.132 49.0518 284.668 49.0518 357.416C49.0518 426.626 86.1271 533.06 160.261 598.743" stroke="#E73A1E" stroke-width="0.864115" stroke-miterlimit="10"/>
<path d="M222.418 261.991C135.419 270.814 91.9102 310.224 91.9102 387.216C91.9102 459.745 135.419 569.833 222.418 617.176" stroke="#E73A1E" stroke-width="0.864115" stroke-miterlimit="10"/>
<path d="M284.643 269.693C192.255 285.801 146.06 335.248 146.06 415.583C146.06 491.418 192.255 598.153 284.643 624.889" stroke="#E73A1E" stroke-width="0.864115" stroke-miterlimit="10"/>
<path d="M346.835 267.993C255.575 291.444 209.962 354.144 209.962 437.034C209.962 516.084 255.609 615.337 346.835 623.212" stroke="#E73A1E" stroke-width="0.864115" stroke-miterlimit="10"/>
<path d="M409.027 258.256C324.491 286.507 282.3 362.539 282.3 447.36C282.3 529.371 324.576 620.171 409.112 613.441" stroke="#E73A1E" stroke-width="0.864115" stroke-miterlimit="10"/>
<path d="M471.218 241.824C398.077 270.999 361.498 357.833 361.498 444.053C361.498 528.619 398.077 612.608 471.218 596.974" stroke="#E73A1E" stroke-width="0.864115" stroke-miterlimit="10"/>
<path d="M533.409 220.026C475.375 245.964 446.358 339.388 446.358 426.707C446.358 513.274 475.444 593.759 533.409 575.164" stroke="#E73A1E" stroke-width="0.864115" stroke-miterlimit="10"/>
<path d="M595.601 194.273C515.36 230.757 515.36 580.113 595.601 549.458" stroke="#E73A1E" stroke-width="0.864115" stroke-miterlimit="10"/>
<path d="M657.792 165.757C617.073 185.022 617.073 539.663 657.792 520.941" stroke="#E73A1E" stroke-width="0.864115" stroke-miterlimit="10"/>
<path d="M719.984 135.968C720.635 135.055 720.635 491.419 719.984 491.141" stroke="#E73A1E" stroke-width="0.864115" stroke-miterlimit="10"/>
<path d="M782.175 106.191C824.161 86.9603 824.161 441.543 782.175 461.376" stroke="#E73A1E" stroke-width="0.864115" stroke-miterlimit="10"/>
<path d="M844.367 77.7902C925.806 46.9031 925.806 396.04 844.367 432.963" stroke="#E73A1E" stroke-width="0.864115" stroke-miterlimit="10"/>
<path d="M906.558 52.0376C965.105 33.5354 994.379 114.043 994.379 200.541C994.379 287.883 965.105 381.18 906.558 407.268" stroke="#E73A1E" stroke-width="0.864115" stroke-miterlimit="10"/>
<path d="M968.75 30.4476C1042.32 14.9983 1079.1 99.1602 1079.1 183.646C1079.1 269.866 1042.32 356.41 968.75 385.621" stroke="#E73A1E" stroke-width="0.864115" stroke-miterlimit="10"/>
<path d="M1030.92 14.2004C1115.77 7.85183 1158.18 98.8942 1158.18 180.824C1158.18 265.588 1115.77 341.227 1030.92 369.385" stroke="#E73A1E" stroke-width="0.864115" stroke-miterlimit="10"/>
<path d="M1093.12 4.69482C1184.51 13.0671 1230.14 112.586 1230.14 191.544C1230.14 274.364 1184.44 336.624 1093.05 359.879" stroke="#E73A1E" stroke-width="0.864115" stroke-miterlimit="10"/>
<path d="M1155.31 3.28418C1247.7 30.6443 1293.89 137.552 1293.89 213.296C1293.89 293.537 1247.7 342.591 1155.31 358.457" stroke="#E73A1E" stroke-width="0.864115" stroke-miterlimit="10"/>
<path d="M1217.5 11.2979C1304.22 59.2648 1347.53 169.364 1347.53 241.789C1347.53 318.654 1304.17 357.844 1217.5 366.471" stroke="#E73A1E" stroke-width="0.864115" stroke-miterlimit="10"/>
<path d="M1279.76 30.0662C1353.33 96.2347 1390.16 202.368 1390.16 271.52C1390.16 344.118 1353.36 379.654 1279.76 385.239" stroke="#E73A1E" stroke-width="0.864115" stroke-miterlimit="10"/>
<path d="M1341.88 60.9878C1393.94 137.367 1420.05 230.838 1420.05 296.521C1420.05 364.077 1394.03 403.834 1341.97 416.172" stroke="#E73A1E" stroke-width="0.864115" stroke-miterlimit="10"/>
<path d="M0 158.483C92.081 242.841 205.001 288.831 328.34 277.533C451.679 269.438 585.438 203.941 719.18 140.096C852.921 76.2522 986.629 14.0501 1109.92 12.0033C1233.1 6.77646 1346.02 61.8321 1438 158.148" stroke="#E73A1E" stroke-width="0.405365" stroke-miterlimit="10"/>
<path d="M0 175.066C36.699 205.305 82.1235 237.059 134.05 258.395C186.01 280.054 244.489 291.259 307.313 288.276C370.155 285.628 437.342 268.791 506.702 242.263C576.079 216.083 647.612 180.211 719.145 147.439C790.696 114.876 862.229 80.369 931.572 56.5243C1000.88 32.3789 1068.1 18.9995 1130.91 20.9191C1193.72 22.5033 1252.16 39.4213 1304.07 67.799C1355.98 95.8761 1401.35 135.506 1438 174.672" stroke="#E73A1E" stroke-width="0.864115" stroke-miterlimit="10"/>
<path d="M0 191.648C28.4011 209.699 68.6416 241.72 117.727 264.501C166.831 287.941 224.796 302.095 288.664 300.661C416.4 300.765 567.764 232.075 719.128 159.292C870.492 86.2087 1021.86 22.9427 1149.54 33.6856C1213.39 37.837 1271.32 58.7676 1320.38 90.3485C1369.44 121.166 1409.63 162.577 1438 191.313" stroke="#E73A1E" stroke-width="0.864115" stroke-miterlimit="10"/>
<path d="M0 208.231C21.1639 216.765 56.8705 248.207 103.476 272.167C150.081 297.018 207.584 314.376 272.359 314.954C401.909 319.834 560.51 249.653 719.111 173.874C877.695 97.7263 1036.31 33.3155 1165.81 49.4471C1230.57 56.0038 1288.04 80.5424 1334.63 113.974C1381.2 146.514 1416.87 187.982 1438 207.838" stroke="#E73A1E" stroke-width="0.864115" stroke-miterlimit="10"/>
<path d="M0 224.813C14.9704 231.185 46.8104 258.776 91.294 282.263C135.778 306.304 192.888 326.205 258.432 330.195C323.977 334.682 397.94 323.141 476.128 296.995C554.3 271.404 636.697 231.197 719.077 191.209C801.457 151.221 883.871 112.25 962.026 89.4465C1040.23 66.0643 1114.19 58.7213 1179.72 68.7934C1245.25 78.3221 1302.34 105.266 1346.79 137.691C1391.28 169.561 1423.05 206.924 1438 224.42" stroke="#E73A1E" stroke-width="0.864115" stroke-miterlimit="10"/>
<path d="M0 241.407C9.83771 244.368 38.4612 269.716 81.1654 293.711C123.938 318.064 180.672 341.123 246.85 347.564C313.045 354.652 388.615 345.251 468.891 318.654C549.201 293.005 634.113 250.219 719.077 210.463C804.041 170.706 889.004 129.515 969.263 106.445C1049.52 82.5661 1125.09 77.0038 1191.27 89.2037C1257.43 100.768 1314.22 130.151 1356.9 162.114C1388.73 186.01 1415.97 212.519 1438 241.014" stroke="#E73A1E" stroke-width="0.864115" stroke-miterlimit="10"/>
<path d="M0 257.99C11.4973 259.146 104.263 351.23 237.645 366.448C304.37 375.699 381.19 367.986 463.125 341.712C545.044 316.422 632.06 272.549 719.06 232.029C806.059 191.694 893.093 149.047 974.994 126.046C1056.91 102.005 1133.77 97.5643 1200.44 111.291C1333.89 134.788 1426.54 239.569 1438 257.655" stroke="#8F78AE" stroke-width="0.864115" stroke-miterlimit="10"/>
<path d="M0 274.573C5.42357 271.381 96.6491 367.558 230.801 386.661C297.869 397.751 375.664 391.588 458.831 365.65C541.998 340.787 630.52 296.162 719.043 255.088C807.565 214.209 896.087 170.544 979.255 147.382C1062.4 123.097 1140.2 119.42 1207.27 133.898C1341.35 159.142 1432.61 264.813 1438 274.18" stroke="#8F78AE" stroke-width="0.864115" stroke-miterlimit="10"/>
<path d="M0 291.155C1.43716 286.183 91.6875 385.748 226.319 408.02C293.643 420.613 372.054 415.687 456.025 390.119C539.996 365.684 629.511 320.62 719.026 279.187C808.54 237.973 898.055 193.614 982.026 170.209C1065.98 145.728 1144.41 142.293 1211.72 156.991C1346.35 182.894 1436.58 288.16 1438 290.762" stroke="#8F78AE" stroke-width="0.864115" stroke-miterlimit="10"/>
<path d="M0.000180874 307.738C-0.444655 303.436 89.3266 405.742 224.129 430.315C291.573 443.995 370.275 439.948 454.622 414.75C538.97 390.72 628.947 345.552 718.94 303.945C808.917 262.569 898.911 217.713 983.258 194.088C1067.61 169.284 1146.31 165.71 1213.73 180.13C1348.61 205.571 1438.38 309.53 1437.86 307.333" stroke="#8F78AE" stroke-width="0.864115" stroke-miterlimit="10"/>
<path d="M-0.000136992 324.32C-0.205446 323.037 89.6 427.331 224.437 453.142C291.863 467.481 370.531 463.908 454.827 439.057C539.141 415.363 629.066 370.403 718.991 328.819C808.917 287.466 898.842 242.471 983.138 218.476C1067.43 193.325 1146.12 189.185 1213.53 202.865C1348.38 226.814 1438.21 328.588 1438 323.939" stroke="#8F78AE" stroke-width="0.864115" stroke-miterlimit="10"/>
<path d="M0 340.915C2.10442 344.823 92.5087 450.263 227.054 476.293C294.327 490.783 372.636 487.267 456.453 462.717C540.287 439.3 629.631 394.849 718.974 353.473C808.318 312.317 897.661 267.496 981.479 243.096C1065.31 217.563 1143.62 212.452 1210.89 224.952C1345.46 246.426 1435.86 345.321 1438 340.522" stroke="#8F78AE" stroke-width="0.864115" stroke-miterlimit="10"/>
<path d="M0 357.497C6.53566 368.633 98.035 474.188 232.016 499.351C299.015 513.482 376.622 509.585 459.567 485.29C542.494 462.046 630.657 418.416 718.974 377.445C807.206 336.671 895.437 292.335 978.365 267.496C1061.29 241.592 1138.92 235.174 1205.92 246.102C1339.93 264.223 1431.45 359.556 1438.02 357.116" stroke="#8F78AE" stroke-width="0.864115" stroke-miterlimit="10"/>
<path d="M0 374.08C13.0542 394.328 106.179 498.681 239.356 521.889C305.927 535.13 382.525 530.435 464.118 506.336C545.728 483.208 632.334 440.653 718.923 400.284C805.529 360.088 892.135 316.573 973.746 291.282C1055.36 265.044 1131.95 257.042 1198.54 266.073C1331.74 280.123 1424.89 371.212 1438.07 373.687" stroke="#8F78AE" stroke-width="0.864115" stroke-miterlimit="10"/>
<path d="M0 390.662C10.8471 404.944 40.0865 439.612 83.133 471.251C126.162 503.248 183.016 532.204 249.091 543.433C315.132 555.263 390.36 549.377 470.208 525.416C550.056 502.289 634.456 461.11 718.94 421.55C803.425 381.99 887.841 339.77 967.689 314.098C1047.54 287.594 1122.8 277.799 1188.86 284.414C1254.92 290.427 1311.77 312.849 1354.82 337.018C1397.81 360.793 1427.12 386.384 1438 390.269" stroke="#E73A1E" stroke-width="0.864115" stroke-miterlimit="10"/>
<path d="M0 407.245C16.2023 426.268 48.7951 463.908 93.6893 495.662C138.566 527.96 195.745 554.395 261.101 563.519C326.475 573.175 400.044 565.52 477.702 542.149C555.377 519.322 637.125 480.768 718.94 441.162C800.756 401.556 882.469 361.429 960.178 335.711C1037.85 309.461 1111.42 297.55 1176.81 301.482C1242.2 304.951 1299.4 324.24 1344.31 348.073C1389.22 371.351 1421.85 399.104 1438.09 406.852" stroke="#E73A1E" stroke-width="0.864115" stroke-miterlimit="10"/>
<path d="M0 423.828C22.6182 445.637 59.2145 487.105 106.299 519.322C153.4 552.383 210.972 576.193 275.524 582.068C404.664 597.332 561.759 533.152 718.872 457.976C875.984 382.429 1033.11 312.514 1162.29 316.133C1226.87 316.492 1284.46 333.178 1331.58 357.763C1378.7 381.446 1415.42 412.992 1438 423.481" stroke="#E73A1E" stroke-width="0.405365" stroke-miterlimit="10"/>
<path d="M0 440.41C30.0777 471.124 71.3448 512.453 120.995 542.797C170.612 573.811 228.68 593.851 292.326 597.263C419.583 606.861 569.219 543.872 718.855 471.829C868.508 399.486 1018.16 331.212 1145.47 330.102C1209.11 328.402 1267.18 341.874 1316.88 365.037C1366.5 387.529 1407.87 419.722 1438 440.029" stroke="#E73A1E" stroke-width="0.405365" stroke-miterlimit="10"/>
<path d="M0 457.004C77.1961 541.016 186.335 609.717 311.471 609.185C436.589 613.66 577.705 548.914 718.837 482.11C859.97 415.305 1001.14 346.431 1126.29 342.441C1251.48 333.444 1360.68 389.367 1438 456.611" stroke="#E73A1E" stroke-width="0.405365" stroke-miterlimit="10"/>
<path d="M0 473.587C96.324 573.222 210.236 624.241 332.977 617.511C455.717 613.545 587.252 551.886 718.82 488.944C850.389 426.002 981.958 361.741 1104.75 352.56C1227.54 340.637 1341.56 383.782 1438 473.148" stroke="#E73A1E" stroke-width="0.405365" stroke-miterlimit="10"/>
<path d="M0 490.17C235.096 720.036 476.915 609.96 718.803 491.869C960.691 373.49 1202.65 261.864 1438 489.776" stroke="#E73A1E" stroke-width="0.405365" stroke-miterlimit="10"/>
</g>
<defs>
<clipPath id="clip0_8_8530">
<rect width="1438" height="630" fill="white"/>
</clipPath>
</defs>
</svg>
