<svg width="377" height="607" viewBox="0 0 377 607" fill="none" xmlns="http://www.w3.org/2000/svg">
<path d="M115.537 65.7196C87.3826 70.8605 51.6795 78.9131 65.1408 116.277C69.8806 129.58 75.924 144.174 70.876 157.368C64.4535 174.143 44.3446 179.101 29.5681 188.725C2.94184 206.061 -7.41477 245.495 7.05368 274.331C15.3485 290.692 45.8377 308.722 47.4374 326.63C47.9587 332.502 43.8825 337.594 40.3276 342.236C13.2392 377.382 6.93518 418.79 28.9874 458.858C44.7593 487.511 62.4628 459.297 77.7251 447.675C88.852 439.147 104.731 437.843 95.4404 456.324C87.0254 473.253 82.5625 491.964 82.4058 510.974C82.311 524.046 87.1456 545.877 104.6 542.978C129.117 538.909 123.252 478.143 149.7 477.692C168.091 477.388 156.004 523.157 154.902 560.155C154.203 583.776 157.959 603.829 176.966 606.046C197.478 608.482 215.098 589.429 221.782 571.192C228.323 553.32 228.05 533.682 227.706 514.593L226.711 462.208C226.51 451.5 226.439 440.28 231.451 430.838C242.519 410.067 270.057 407.326 289.171 398.653C292.086 397.45 294.797 395.781 297.205 393.707C298.108 392.867 298.904 391.913 299.575 390.868C303.9 384.18 298.022 380.172 298.508 373.813C299.196 364.907 302.928 357.707 308.806 351.239C318.262 340.856 329.021 331.815 340.8 324.352C355.327 315.154 373.149 305.993 376.1 288.731C378.825 272.723 367.118 258.153 356.169 246.458C356.169 246.458 306.661 211.994 306.661 211.957C296.375 204.319 292.797 190.029 293.626 176.969C294.456 163.91 298.935 151.496 301.684 138.741C310.773 96.4436 299.658 49.9433 272.261 17.0021C269.263 13.3911 265.894 10.1235 262.213 7.25618C258.857 4.40569 254.945 2.32855 250.742 1.16497C245.125 -0.175093 239.248 0.702041 233.655 2.10302C220.131 5.50955 207.537 12.0332 196.826 21.1807C169.56 44.6074 151.276 59.0801 115.537 65.7196Z" stroke="#D2D310" stroke-miterlimit="10"/>
</svg>
