<svg width="388" height="625" viewBox="0 0 388 625" fill="none" xmlns="http://www.w3.org/2000/svg">
<path d="M67.4486 119.099C72.3929 132.8 78.5821 147.854 73.377 161.446C66.7135 178.743 45.9168 183.814 30.6098 193.712C3.05471 211.545 -7.69935 252.222 7.27571 281.941C15.777 298.799 47.2922 317.376 48.9047 335.843C49.4264 341.938 45.2291 347.18 41.5417 351.934C13.4056 388.161 6.86072 430.85 29.5901 472.185C45.8457 501.757 64.105 472.55 79.8389 460.483C91.3281 451.67 107.714 450.268 98.0864 469.357C89.3043 486.802 84.6144 506.117 84.3919 525.758C84.2496 539.24 89.2413 561.791 107.216 558.78C132.483 554.538 126.329 491.737 153.588 491.262C184.605 490.774 131.06 618.241 181.487 624.275C202.675 626.823 220.91 607.21 227.823 588.426C234.593 570.019 234.308 549.772 233.941 530.098L232.921 476.098C232.72 465.066 232.637 453.449 237.806 443.771C249.248 422.353 277.704 419.586 297.422 410.688C301.524 408.823 305.722 406.519 308.176 402.667C312.634 395.768 306.54 391.623 306.99 385.053C307.678 375.874 311.52 368.438 317.578 361.771C327.315 351.042 338.41 341.707 350.564 334.015C365.527 324.543 383.917 315.096 386.928 297.287C389.727 280.758 377.621 265.716 366.286 253.636L315.077 218.067C304.405 210.18 300.742 195.406 301.607 181.961C302.473 168.516 307.109 155.656 309.907 142.491C319.333 98.8151 307.773 50.8854 279.589 16.7908C273.839 9.83054 266.962 3.13841 258.247 1.1515C252.485 -0.177179 246.462 0.712667 240.723 2.16324C226.908 5.69455 214.05 12.3957 203.113 21.7642C175.132 45.7535 156.422 60.4299 119.523 67.0854C90.4744 72.327 53.5525 80.5672 67.4486 119.099Z" stroke="#D1D706" stroke-miterlimit="10"/>
</svg>
