<svg width="143" height="212" viewBox="0 0 143 212" fill="none" xmlns="http://www.w3.org/2000/svg">
<path d="M27.916 34.6788C20.2189 38.3367 10.4344 41.836 14.3956 54.09C15.8307 58.5526 17.6571 63.4176 16.5423 67.9168C15.1547 73.55 10.1854 76.0983 6.63923 79.8415C0.317878 86.5233 -1.66273 99.0333 3.27101 108.775C6.16484 114.506 15.131 120.676 16.317 126.809C16.6728 128.711 15.7951 130.467 15.0479 131.991C9.39073 143.867 9.4026 157.218 17.0404 170.07C22.2469 178.836 27.9871 172.508 33.0276 170.265C36.5856 168.655 41.128 168.655 39.5625 174.191C38.1354 179.694 38.0174 185.469 39.2185 191.029C40.0369 195.077 42.3258 201.235 47.9 200.881C56.3443 200.357 56.6764 184.518 65.5357 183.896C72.1892 183.433 70.7067 194.553 71.8571 202.686C72.6043 207.953 74.0631 212.099 79.4 211.428C85.1402 210.721 89.8249 204.234 91.5328 197.894C93.1576 191.797 92.9204 185.262 92.6594 178.848C92.4104 172.971 92.1732 167.094 92.0309 161.254C91.9479 157.596 91.9241 153.938 93.3236 150.671C96.419 143.489 104.199 141.233 110.307 137.685C111.229 137.176 112.092 136.562 112.881 135.856C113.184 135.573 113.458 135.258 113.699 134.917C115.158 132.869 113.889 131.528 114.351 129.601C115.07 126.919 116.548 124.517 118.597 122.7C122.024 119.49 125.769 116.658 129.769 114.25C134.715 111.251 140.585 108.154 141.997 102.618C143.183 97.9481 140.218 93.5586 137.49 89.9373C137.751 89.2911 124.669 79.4026 124.717 78.6954C121.989 76.2568 121.017 71.9649 121.159 68.0509C121.301 64.137 122.44 60.3694 123.045 56.5408C125.061 43.8235 121.681 29.7162 112.952 20.2789C108.303 15.2554 101.602 17.1819 96.8342 13.841C91.7581 10.2928 91.9597 3.68424 86.0535 1.33099C83.5424 0.480399 80.8661 0.279366 78.2615 0.745717C71.9044 1.68955 65.8937 4.31089 60.8155 8.35414C48.1491 18.0963 39.1355 29.387 27.916 34.6788Z" stroke="#E2683E" stroke-miterlimit="10"/>
</svg>
