<svg width="356" height="571" viewBox="0 0 356 571" fill="none" xmlns="http://www.w3.org/2000/svg">
<path d="M107.609 62.8871C81.2981 67.9583 47.9319 75.5406 60.5361 110.648C65.0181 123.155 70.6385 136.882 65.943 149.279C60.0144 165.053 41.2325 169.783 27.4663 178.901C2.67281 195.272 -6.91968 232.27 6.73985 259.356C14.5063 274.765 43.0941 291.721 44.683 308.568C45.181 314.09 41.4222 318.893 38.1141 323.196C12.9412 356.256 7.21413 395.118 27.9761 432.749C42.7858 459.568 59.4097 433.359 73.7569 422.595C84.215 414.708 99.0484 413.489 90.4756 430.823C82.6689 446.7 78.5762 464.232 78.5235 482.022C78.5235 494.273 83.1478 514.692 99.5108 512.022C122.585 508.28 117.297 451.559 142.138 451.071C159.461 450.742 148.327 493.395 147.45 527.784C146.869 549.726 150.426 568.377 168.2 570.328C187.373 572.449 203.843 554.554 210.068 537.414C216.174 520.616 215.901 502.148 215.534 484.204L214.55 435.029C214.36 424.972 214.289 414.379 218.972 405.541C229.324 386.037 255.078 383.294 273.018 375.065C275.754 373.936 278.299 372.368 280.559 370.421C281.418 369.631 282.179 368.734 282.824 367.751C286.879 361.486 281.424 357.707 281.911 351.758C282.586 343.42 286.12 336.654 291.657 330.596C300.577 320.854 310.712 312.369 321.798 305.362C335.47 296.731 352.2 288.113 354.999 271.9C357.572 256.918 346.698 243.277 336.466 232.294C336.466 232.209 290.222 199.99 290.222 199.893C280.618 192.713 277.286 179.316 278.057 167.101C278.828 154.886 283.013 143.233 285.551 131.286C294.017 91.6438 283.725 47.942 257.876 17.2471C254.688 13.7211 251.133 10.5653 247.276 7.83631C243.6 5.02038 240.315 2.30196 235.857 1.18047C230.533 -0.160454 224.925 0.680668 219.601 1.98502C206.721 5.17007 194.72 11.3412 184.515 20.0265C158.595 42.1882 141.13 56.4264 107.609 62.8871Z" stroke="#D4CC1D" stroke-miterlimit="10"/>
</svg>
